<svg width="24" height="24" viewBox="0 0 24 24" fill="none" xmlns="http://www.w3.org/2000/svg">
<path d="M18.3231 10C18.6807 10 19.0013 10.2001 19.2358 10.4699C19.6219 10.9142 20.1333 11.2384 20.7093 11.3957C21.2267 11.537 21.7678 11.5358 22.2773 11.399C22.6236 11.306 23.016 11.5119 22.9785 11.8685C22.9294 12.335 22.7868 12.7895 22.5562 13.2039C22.2022 13.8402 21.6586 14.3502 21.001 14.663L21.0002 20.0002C21.0001 20.5524 20.5524 21 20.0002 21H16C15.4477 21 15 20.5523 15 20V19C15.0007 18.2191 14.697 17.4687 14.1532 16.9082C13.6095 16.3477 12.8686 16.0213 12.088 15.9984C11.3075 15.9755 10.5487 16.2578 9.97303 16.7855C9.39733 17.3131 9.05006 18.0444 9.005 18.824L9 19V20C9 20.5523 8.55228 21 8 21H4C3.44771 21 3 20.5523 3 20V14.664C2.34115 14.3517 1.79628 13.8414 1.44148 13.2044C1.21036 12.7895 1.06741 12.3343 1.01832 11.867C0.980832 11.5102 1.37352 11.3045 1.71993 11.3978C2.22943 11.535 2.7707 11.5366 3.2884 11.3955C3.86482 11.2384 4.37672 10.9142 4.76314 10.4697C4.99769 10.2 5.31826 10 5.67574 10H18.3231ZM16.1698 3C16.667 3 17.0746 3.37366 17.2639 3.83336C17.3439 4.02768 17.4415 4.21493 17.5558 4.39272C17.8267 4.81438 18.1851 5.17293 18.6067 5.4441C19.0282 5.71527 19.5031 5.89273 19.9991 5.96448C20.2488 6.0006 20.501 6.00951 20.7512 5.99152C21.1055 5.96605 21.438 6.24873 21.3278 6.58638C21.1492 7.13343 20.8371 7.63183 20.415 8.03408C19.812 8.60872 19.0237 8.94943 18.192 8.995L18 9H6C5.13397 9.00014 4.29864 8.6792 3.6555 8.09923C3.19802 7.68668 2.86089 7.16391 2.67231 6.58642C2.56205 6.24877 2.89458 5.96606 3.24887 5.99152C3.49906 6.00951 3.75118 6.0006 4.00086 5.96448C4.49693 5.89273 4.9718 5.71527 5.39334 5.4441C5.81488 5.17293 6.17327 4.81438 6.44424 4.39272C6.55849 4.21493 6.65608 4.02768 6.73611 3.83336C6.92543 3.37366 7.333 3 7.83016 3H16.1698Z" fill="black"/>
</svg>
