<svg width="24" height="24" viewBox="0 0 24 24" fill="none" xmlns="http://www.w3.org/2000/svg">
<path d="M12.513 2.00101C13.2191 3.99613 14.6055 5.67875 16.4287 6.75347C18.0666 7.71897 19.9631 8.13842 21.8452 7.96116C22.1699 7.93057 22.4568 8.19522 22.3834 8.51305C22.2185 9.22706 21.8808 9.89338 21.396 10.4515C20.7699 11.1724 19.9308 11.6754 19 11.888V19L20.0005 19.0005C20.5526 19.0008 21 19.4487 21 20.0008V20.0008C21 20.553 20.5523 21.001 20 21.001H4C3.44772 21.001 3 20.5533 3 20.001V20.001C3 19.4487 3.44772 19.001 4 19.001H5V11.888C4.06913 11.6753 3.22997 11.1723 2.60372 10.4515C2.11889 9.89345 1.78111 9.2273 1.6159 8.51342C1.54232 8.19549 1.82935 7.93069 2.15423 7.96136C4.03642 8.13902 5.93306 7.71989 7.57124 6.75459C9.39486 5.68002 10.7816 3.99733 11.488 2.00201H12.513V2.00101ZM17 12H7V19H17V12ZM12 5.32701L11.89 5.48201C10.3145 7.64051 8.00784 9.15246 5.4 9.73601L5.042 9.80901L5.715 9.99901H18.288L18.956 9.80901L18.945 9.80701C16.1999 9.28473 13.7561 7.73824 12.109 5.48101L12 5.32701Z" fill="black"/>
</svg>
