<svg width="24" height="24" viewBox="0 0 24 24" fill="none" xmlns="http://www.w3.org/2000/svg">
<path d="M18.3231 10C18.6807 10 19.0013 10.2001 19.2359 10.4699C19.6219 10.9142 20.1333 11.2384 20.7093 11.3957C21.2267 11.537 21.7678 11.5358 22.2773 11.399C22.6236 11.306 23.016 11.5119 22.9785 11.8685C22.9294 12.335 22.7868 12.7895 22.5563 13.2039C22.2022 13.8402 21.6586 14.3502 21.001 14.663L21.0002 20.0002C21.0001 20.5524 20.5524 21 20.0002 21H15C14.4477 21 14 20.5523 14 20V19C14.0002 18.4954 13.8096 18.0094 13.4665 17.6395C13.1234 17.2695 12.6532 17.0428 12.15 17.005L12 17C11.4954 16.9998 11.0094 17.1904 10.6395 17.5335C10.2695 17.8766 10.0428 18.3468 10.005 18.85L10 19V20C10 20.5523 9.55229 21 9 21H4C3.44772 21 3 20.5523 3 20V14.664C2.34115 14.3517 1.79628 13.8414 1.44149 13.2044C1.21036 12.7895 1.06741 12.3343 1.01832 11.867C0.980836 11.5102 1.37353 11.3045 1.71993 11.3978C2.22943 11.535 2.77071 11.5366 3.28841 11.3955C3.86482 11.2384 4.37673 10.9142 4.76314 10.4697C4.99769 10.2 5.31827 10 5.67574 10H18.3231ZM17.93 12H6.069L5.993 12.079C5.562 12.499 5.058 12.839 4.507 13.081L4.411 13.12L5 13.4L4.999 19L8.001 18.999V18.927L8.011 18.704C8.16 16.688 9.791 15.105 11.865 15.006L12.073 15.001L12.296 15.011C13.2681 15.0831 14.1805 15.5077 14.8616 16.2051C15.5427 16.9024 15.9458 17.8245 15.995 18.798L15.999 18.999L19 19L19.001 13.4L19.588 13.12L19.493 13.08C18.9415 12.8385 18.4381 12.4994 18.007 12.079L17.93 12ZM16.1698 3C16.667 3 17.0746 3.37366 17.2639 3.83336C17.3439 4.02768 17.4415 4.21493 17.5558 4.39272C17.8267 4.81438 18.1851 5.17293 18.6067 5.4441C19.0282 5.71527 19.5031 5.89273 19.9991 5.96448C20.2488 6.0006 20.501 6.00951 20.7512 5.99152C21.1055 5.96605 21.438 6.24873 21.3278 6.58638C21.1492 7.13343 20.8371 7.63183 20.415 8.03408C19.812 8.60872 19.0237 8.94943 18.192 8.995L18 9H6C5.13397 9.00014 4.29865 8.6792 3.65551 8.09923C3.19802 7.68668 2.86089 7.16391 2.67231 6.58642C2.56205 6.24877 2.89459 5.96606 3.24887 5.99152C3.49907 6.00951 3.75119 6.0006 4.00086 5.96448C4.49693 5.89273 4.9718 5.71527 5.39334 5.4441C5.81489 5.17293 6.17327 4.81438 6.44425 4.39272C6.5585 4.21493 6.65608 4.02768 6.73611 3.83336C6.92543 3.37366 7.333 3 7.83016 3H16.1698ZM15.6 5H8.399C8.03872 5.70545 7.53049 6.32487 6.909 6.816L6.661 7H17.338L17.326 6.992C16.6828 6.53728 16.1444 5.95012 15.747 5.27L15.6 5Z" fill="black"/>
</svg>
