<svg width="24" height="24" viewBox="0 0 24 24" fill="none" xmlns="http://www.w3.org/2000/svg">
<path d="M21 19H22C22.5523 19 23 19.4477 23 20V20C23 20.5523 22.5523 21 22 21H2C1.44772 21 1 20.5523 1 20V20C1 19.4477 1.44772 19 2 19H3V4C3 3.73478 3.10536 3.48043 3.29289 3.29289C3.48043 3.10536 3.73478 3 4 3H14C14.2652 3 14.5196 3.10536 14.7071 3.29289C14.8946 3.48043 15 3.73478 15 4V19H19V11H18C17.4477 11 17 10.5523 17 10V10C17 9.44772 17.4477 9 18 9H20C20.2652 9 20.5196 9.10536 20.7071 9.29289C20.8946 9.48043 21 9.73478 21 10V19ZM5 5V19H13V5H5ZM7 11.5C7 11.2239 7.22386 11 7.5 11H10.5C10.7761 11 11 11.2239 11 11.5V12.5C11 12.7761 10.7761 13 10.5 13H7.5C7.22386 13 7 12.7761 7 12.5V11.5ZM7 7.5C7 7.22386 7.22386 7 7.5 7H10.5C10.7761 7 11 7.22386 11 7.5V8.5C11 8.77614 10.7761 9 10.5 9H7.5C7.22386 9 7 8.77614 7 8.5V7.5Z" fill="black"/>
</svg>
