<svg width="24" height="24" viewBox="0 0 24 24" fill="none" xmlns="http://www.w3.org/2000/svg">
<path d="M3 19V5.69999C2.99994 5.49471 3.06305 5.29439 3.18077 5.12622C3.29849 4.95806 3.4651 4.83019 3.658 4.75999L13.329 1.24399C13.4045 1.21649 13.4856 1.20762 13.5653 1.21812C13.645 1.22862 13.721 1.25819 13.7869 1.30431C13.8527 1.35043 13.9065 1.41175 13.9436 1.48306C13.9807 1.55438 14 1.63359 14 1.71399V6.66699L20.316 8.77199C20.5152 8.83834 20.6885 8.9657 20.8112 9.13604C20.934 9.30637 21.0001 9.51102 21 9.72099V19H22C22.5523 19 23 19.4477 23 20V20C23 20.5523 22.5523 21 22 21H2C1.44772 21 1 20.5523 1 20V20C1 19.4477 1.44772 19 2 19H3ZM5 19H12V3.85499L5 6.40099V19ZM19 19V10.442L14 8.77499V19H19Z" fill="black"/>
</svg>
