<svg width="24" height="24" viewBox="0 0 24 24" fill="none" xmlns="http://www.w3.org/2000/svg">
<path d="M21 20H22C22.5523 20 23 20.4477 23 21V21C23 21.5523 22.5523 22 22 22H2C1.44772 22 1 21.5523 1 21V21C1 20.4477 1.44772 20 2 20H3V3C3 2.73478 3.10536 2.48043 3.29289 2.29289C3.48043 2.10536 3.73478 2 4 2H20C20.2652 2 20.5196 2.10536 20.7071 2.29289C20.8946 2.48043 21 2.73478 21 3V20ZM8.5 11C8.22386 11 8 11.2239 8 11.5V12.5C8 12.7761 8.22386 13 8.5 13H10.5C10.7761 13 11 12.7761 11 12.5V11.5C11 11.2239 10.7761 11 10.5 11H8.5ZM8.5 7C8.22386 7 8 7.22386 8 7.5V8.5C8 8.77614 8.22386 9 8.5 9H10.5C10.7761 9 11 8.77614 11 8.5V7.5C11 7.22386 10.7761 7 10.5 7H8.5ZM8.5 15C8.22386 15 8 15.2239 8 15.5V16.5C8 16.7761 8.22386 17 8.5 17H10.5C10.7761 17 11 16.7761 11 16.5V15.5C11 15.2239 10.7761 15 10.5 15H8.5ZM13.5 15C13.2239 15 13 15.2239 13 15.5V16.5C13 16.7761 13.2239 17 13.5 17H15.5C15.7761 17 16 16.7761 16 16.5V15.5C16 15.2239 15.7761 15 15.5 15H13.5ZM13.5 11C13.2239 11 13 11.2239 13 11.5V12.5C13 12.7761 13.2239 13 13.5 13H15.5C15.7761 13 16 12.7761 16 12.5V11.5C16 11.2239 15.7761 11 15.5 11H13.5ZM13.5 7C13.2239 7 13 7.22386 13 7.5V8.5C13 8.77614 13.2239 9 13.5 9H15.5C15.7761 9 16 8.77614 16 8.5V7.5C16 7.22386 15.7761 7 15.5 7H13.5Z" fill="black"/>
</svg>
