<svg width="24" height="24" viewBox="0 0 24 24" fill="none" xmlns="http://www.w3.org/2000/svg">
<path d="M21 20H22C22.5523 20 23 20.4477 23 21V21C23 21.5523 22.5523 22 22 22H2C1.44772 22 1 21.5523 1 21V21C1 20.4477 1.44772 20 2 20H3V3C3 2.73478 3.10536 2.48043 3.29289 2.29289C3.48043 2.10536 3.73478 2 4 2H20C20.2652 2 20.5196 2.10536 20.7071 2.29289C20.8946 2.48043 21 2.73478 21 3V20ZM19 20V4H5V20H19ZM8 11.5C8 11.2239 8.22386 11 8.5 11H10.5C10.7761 11 11 11.2239 11 11.5V12.5C11 12.7761 10.7761 13 10.5 13H8.5C8.22386 13 8 12.7761 8 12.5V11.5ZM8 7.5C8 7.22386 8.22386 7 8.5 7H10.5C10.7761 7 11 7.22386 11 7.5V8.5C11 8.77614 10.7761 9 10.5 9H8.5C8.22386 9 8 8.77614 8 8.5V7.5ZM8 15.5C8 15.2239 8.22386 15 8.5 15H10.5C10.7761 15 11 15.2239 11 15.5V16.5C11 16.7761 10.7761 17 10.5 17H8.5C8.22386 17 8 16.7761 8 16.5V15.5ZM13 15.5C13 15.2239 13.2239 15 13.5 15H15.5C15.7761 15 16 15.2239 16 15.5V16.5C16 16.7761 15.7761 17 15.5 17H13.5C13.2239 17 13 16.7761 13 16.5V15.5ZM13 11.5C13 11.2239 13.2239 11 13.5 11H15.5C15.7761 11 16 11.2239 16 11.5V12.5C16 12.7761 15.7761 13 15.5 13H13.5C13.2239 13 13 12.7761 13 12.5V11.5ZM13 7.5C13 7.22386 13.2239 7 13.5 7H15.5C15.7761 7 16 7.22386 16 7.5V8.5C16 8.77614 15.7761 9 15.5 9H13.5C13.2239 9 13 8.77614 13 8.5V7.5Z" fill="black"/>
</svg>
