<svg width="24" height="24" viewBox="0 0 24 24" fill="none" xmlns="http://www.w3.org/2000/svg">
<path d="M9 19H12V12.942L8 9.454L4 12.942V19H7V16C7 15.4477 7.44772 15 8 15V15C8.55228 15 9 15.4477 9 16V19ZM21 21H3C2.73478 21 2.48043 20.8946 2.29289 20.7071C2.10536 20.5196 2 20.2652 2 20V12.487C1.99998 12.3441 2.03059 12.2029 2.08976 12.0728C2.14892 11.9428 2.23528 11.8269 2.343 11.733L6 8.544V4C6 3.73478 6.10536 3.48043 6.29289 3.29289C6.48043 3.10536 6.73478 3 7 3H21C21.2652 3 21.5196 3.10536 21.7071 3.29289C21.8946 3.48043 22 3.73478 22 4V20C22 20.2652 21.8946 20.5196 21.7071 20.7071C21.5196 20.8946 21.2652 21 21 21ZM16.5 11C16.2239 11 16 11.2239 16 11.5V12.5C16 12.7761 16.2239 13 16.5 13H17.5C17.7761 13 18 12.7761 18 12.5V11.5C18 11.2239 17.7761 11 17.5 11H16.5ZM16.5 15C16.2239 15 16 15.2239 16 15.5V16.5C16 16.7761 16.2239 17 16.5 17H17.5C17.7761 17 18 16.7761 18 16.5V15.5C18 15.2239 17.7761 15 17.5 15H16.5ZM16.5 7C16.2239 7 16 7.22386 16 7.5V8.5C16 8.77614 16.2239 9 16.5 9H17.5C17.7761 9 18 8.77614 18 8.5V7.5C18 7.22386 17.7761 7 17.5 7H16.5ZM12.5 7C12.2239 7 12 7.22386 12 7.5V8.5C12 8.77614 12.2239 9 12.5 9H13.5C13.7761 9 14 8.77614 14 8.5V7.5C14 7.22386 13.7761 7 13.5 7H12.5Z" fill="black"/>
</svg>
