<svg width="24" height="24" viewBox="0 0 24 24" fill="none" xmlns="http://www.w3.org/2000/svg">
<path d="M2 19V8V8C1.44772 8 1 7.55228 1 7V7C1 6.44772 1.44772 6 2 6H4V4C4 3.73478 4.10536 3.48043 4.29289 3.29289C4.48043 3.10536 4.73478 3 5 3H19C19.2652 3 19.5196 3.10536 19.7071 3.29289C19.8946 3.48043 20 3.73478 20 4V6H22C22.5523 6 23 6.44772 23 7V7C23 7.55228 22.5523 8 22 8V8V19V19C22.5523 19 23 19.4477 23 20V20C23 20.5523 22.5523 21 22 21H2C1.44772 21 1 20.5523 1 20V20C1 19.4477 1.44772 19 2 19V19ZM12.5 19C12.7761 19 13 18.7761 13 18.5V12.5C13 12.2239 12.7761 12 12.5 12H11.5C11.2239 12 11 12.2239 11 12.5V18.5C11 18.7761 11.2239 19 11.5 19H12.5ZM7.5 19C7.77614 19 8 18.7761 8 18.5V12.5C8 12.2239 7.77614 12 7.5 12H6.5C6.22386 12 6 12.2239 6 12.5V18.5C6 18.7761 6.22386 19 6.5 19H7.5ZM17.5 19C17.7761 19 18 18.7761 18 18.5V12.5C18 12.2239 17.7761 12 17.5 12H16.5C16.2239 12 16 12.2239 16 12.5V18.5C16 18.7761 16.2239 19 16.5 19H17.5ZM6 5V6H18V5H6Z" fill="black"/>
</svg>
