<svg width="24" height="24" viewBox="0 0 24 24" fill="none" xmlns="http://www.w3.org/2000/svg">
<path d="M20 6H22C22.5523 6 23 6.44772 23 7V7C23 7.55228 22.5523 8 22 8V8V19V19C22.5523 19 23 19.4477 23 20V20C23 20.5523 22.5523 21 22 21H2C1.44772 21 1 20.5523 1 20V20C1 19.4477 1.44772 19 2 19V19V8V8C1.44772 8 1 7.55228 1 7V7C1 6.44772 1.44772 6 2 6H4V4C4 3.73478 4.10536 3.48043 4.29289 3.29289C4.48043 3.10536 4.73478 3 5 3H19C19.2652 3 19.5196 3.10536 19.7071 3.29289C19.8946 3.48043 20 3.73478 20 4V6ZM20 8H4V19H7V12.5C7 12.2239 7.22386 12 7.5 12H8.5C8.77614 12 9 12.2239 9 12.5V19H11V12.5C11 12.2239 11.2239 12 11.5 12H12.5C12.7761 12 13 12.2239 13 12.5V19H15V12.5C15 12.2239 15.2239 12 15.5 12H16.5C16.7761 12 17 12.2239 17 12.5V19H20V8ZM6 5V6H18V5H6Z" fill="black"/>
</svg>
