<svg width="24" height="24" viewBox="0 0 24 24" fill="none" xmlns="http://www.w3.org/2000/svg">
<path d="M20 20C20 20.2652 19.8946 20.5196 19.7071 20.7071C19.5196 20.8947 19.2652 21 19 21H5C4.73478 21 4.48043 20.8947 4.29289 20.7071C4.10536 20.5196 4 20.2652 4 20V11H2.29332C1.8363 11 1.61882 10.4375 1.95699 10.13L11.327 1.61201C11.5111 1.44449 11.7511 1.35165 12 1.35165C12.2489 1.35165 12.4889 1.44449 12.673 1.61201L22.043 10.13C22.3812 10.4375 22.1637 11 21.7067 11H20V20ZM8.592 13.808L8.03399 14.1301C7.79485 14.2681 7.71286 14.5739 7.85087 14.813L8.3511 15.6799C8.48912 15.9191 8.79489 16.0011 9.03407 15.8631L9.594 15.54C9.99236 15.9166 10.4736 16.1944 10.999 16.351V16.996C10.999 17.2722 11.2229 17.496 11.499 17.496H12.501C12.7771 17.496 13.001 17.2722 13.001 16.996V16.35C13.5263 16.1937 14.0075 15.9163 14.406 15.54L14.9655 15.8626C15.2044 16.0004 15.5099 15.9186 15.648 15.6798L16.1494 14.8132C16.2877 14.574 16.2059 14.268 15.9665 14.1298L15.409 13.808C15.5355 13.2754 15.5355 12.7206 15.409 12.188L15.9675 11.8651C16.2064 11.7269 16.2883 11.4213 16.1503 11.1823L15.6499 10.3151C15.5119 10.0759 15.2061 9.9939 14.9669 10.1319L14.407 10.455C14.008 10.0785 13.526 9.801 13 9.64501V9.00001C13 8.72387 12.7761 8.50001 12.5 8.50001H11.498C11.2219 8.50001 10.998 8.72387 10.998 9.00001V9.64401C10.4726 9.80058 9.99136 10.0784 9.593 10.455L9.03407 10.1322C8.79491 9.99402 8.48904 10.076 8.35096 10.3151L7.84999 11.183C7.71193 11.4221 7.7939 11.7279 8.03307 11.866L8.591 12.188C8.46446 12.7206 8.46446 13.2754 8.591 13.808H8.592ZM12 14.498C11.803 14.4981 11.6078 14.4595 11.4257 14.3842C11.2436 14.3089 11.0781 14.1985 10.9387 14.0592C10.7993 13.92 10.6886 13.7547 10.6131 13.5727C10.5376 13.3907 10.4986 13.1956 10.4985 12.9985C10.4984 12.8015 10.5371 12.6063 10.6123 12.4242C10.6876 12.2421 10.798 12.0766 10.9373 11.9372C11.0765 11.7978 11.2419 11.6871 11.4239 11.6116C11.6059 11.5361 11.801 11.4971 11.998 11.497C12.3958 11.4967 12.7775 11.6545 13.059 11.9356C13.3404 12.2168 13.4987 12.5982 13.499 12.996C13.4993 13.3938 13.3415 13.7755 13.0604 14.057C12.7793 14.3385 12.3978 14.4967 12 14.497V14.498Z" fill="black"/>
</svg>
