<svg width="24" height="24" viewBox="0 0 24 24" fill="none" xmlns="http://www.w3.org/2000/svg">
<path d="M19 21H5C4.73478 21 4.48043 20.8947 4.29289 20.7071C4.10536 20.5196 4 20.2652 4 20V11H2.29332C1.8363 11 1.61882 10.4375 1.95699 10.13L11.327 1.61201C11.5111 1.44449 11.7511 1.35165 12 1.35165C12.2489 1.35165 12.4889 1.44449 12.673 1.61201L22.043 10.13C22.3812 10.4375 22.1637 11 21.7067 11H20V20C20 20.2652 19.8946 20.5196 19.7071 20.7071C19.5196 20.8947 19.2652 21 19 21ZM6 19H18V9.15701L12 3.70301L6 9.15701V19ZM8.591 13.809C8.46429 13.2758 8.46429 12.7203 8.591 12.187L8.0331 11.865C7.79391 11.7269 7.71195 11.4211 7.85004 11.1819L8.34984 10.3163C8.48797 10.077 8.79396 9.99516 9.03312 10.1334L9.591 10.456C9.98885 10.079 10.4698 9.80084 10.995 9.64401V9.00001C10.995 8.72387 11.2189 8.50001 11.495 8.50001H12.495C12.7711 8.50001 12.995 8.72387 12.995 9.00001V9.64401C13.527 9.80301 14.005 10.084 14.399 10.456L14.957 10.1334C15.1961 9.99512 15.502 10.0769 15.6402 10.3161L16.14 11.1812C16.2781 11.4203 16.1963 11.726 15.9573 11.8642L15.399 12.187C15.5257 12.7203 15.5257 13.2758 15.399 13.809L15.9568 14.131C16.196 14.269 16.278 14.5749 16.1398 14.8141L15.64 15.6792C15.5019 15.9183 15.1962 16.0002 14.9571 15.8622L14.399 15.54C14.001 15.9167 13.5201 16.1945 12.995 16.351V16.996C12.995 17.2722 12.7711 17.496 12.495 17.496H11.495C11.2189 17.496 10.995 17.2722 10.995 16.996V16.35C10.4699 16.1935 9.98896 15.9157 9.591 15.539L9.03277 15.8612C8.79371 15.9992 8.48807 15.9174 8.34994 15.6784L7.85019 14.8138C7.71201 14.5748 7.79376 14.269 8.0328 14.1308L8.591 13.808V13.809ZM11.995 14.497C12.1965 14.5044 12.3973 14.471 12.5856 14.399C12.7739 14.327 12.9458 14.2178 13.0909 14.0779C13.236 13.9379 13.3514 13.7702 13.4303 13.5847C13.5091 13.3991 13.5498 13.1996 13.5498 12.998C13.5498 12.7964 13.5091 12.5969 13.4303 12.4114C13.3514 12.2258 13.236 12.0581 13.0909 11.9182C12.9458 11.7782 12.7739 11.669 12.5856 11.597C12.3973 11.525 12.1965 11.4917 11.995 11.499C11.6069 11.5132 11.2395 11.6773 10.9699 11.9569C10.7004 12.2365 10.5498 12.6097 10.5498 12.998C10.5498 13.3864 10.7004 13.7596 10.9699 14.0391C11.2395 14.3187 11.6069 14.4828 11.995 14.497Z" fill="black"/>
</svg>
