<svg width="24" height="24" viewBox="0 0 24 24" fill="none" xmlns="http://www.w3.org/2000/svg">
<path d="M19 21H5C4.73478 21 4.48043 20.8947 4.29289 20.7071C4.10536 20.5196 4 20.2652 4 20V11H2.29332C1.8363 11 1.61882 10.4375 1.95699 10.13L11.327 1.61201C11.5111 1.44449 11.7511 1.35165 12 1.35165C12.2489 1.35165 12.4889 1.44449 12.673 1.61201L22.043 10.13C22.3812 10.4375 22.1637 11 21.7067 11H20V20C20 20.2652 19.8946 20.5196 19.7071 20.7071C19.5196 20.8947 19.2652 21 19 21ZM6 19H18V9.15701L12 3.70301L6 9.15701V19ZM8 15.5C8 15.2239 8.22386 15 8.5 15H15.5C15.7761 15 16 15.2239 16 15.5V16.5C16 16.7762 15.7761 17 15.5 17H8.5C8.22386 17 8 16.7762 8 16.5V15.5Z" fill="black"/>
</svg>
