<svg width="24" height="24" viewBox="0 0 24 24" fill="none" xmlns="http://www.w3.org/2000/svg">
<path d="M20 20C20 20.2652 19.8946 20.5196 19.7071 20.7071C19.5196 20.8947 19.2652 21 19 21H5C4.73478 21 4.48043 20.8947 4.29289 20.7071C4.10536 20.5196 4 20.2652 4 20V11H2.29332C1.8363 11 1.61882 10.4375 1.95699 10.13L11.327 1.61201C11.5111 1.44449 11.7511 1.35165 12 1.35165C12.2489 1.35165 12.4889 1.44449 12.673 1.61201L22.043 10.13C22.3812 10.4375 22.1637 11 21.7067 11H20V20ZM9.5 10C9.22386 10 9 10.2239 9 10.5V15.5C9 15.7762 9.22386 16 9.5 16H14.5C14.7761 16 15 15.7762 15 15.5V10.5C15 10.2239 14.7761 10 14.5 10H9.5ZM11 12.5C11 12.2239 11.2239 12 11.5 12H12.5C12.7761 12 13 12.2239 13 12.5V13.5C13 13.7762 12.7761 14 12.5 14H11.5C11.2239 14 11 13.7762 11 13.5V12.5Z" fill="black"/>
</svg>
