<svg width="24" height="24" viewBox="0 0 24 24" fill="none" xmlns="http://www.w3.org/2000/svg">
<path d="M20 20C20 20.2652 19.8946 20.5196 19.7071 20.7071C19.5196 20.8947 19.2652 21 19 21H5C4.73478 21 4.48043 20.8947 4.29289 20.7071C4.10536 20.5196 4 20.2652 4 20V11H2.29332C1.8363 11 1.61882 10.4375 1.95699 10.13L11.327 1.61201C11.5111 1.44449 11.7511 1.35165 12 1.35165C12.2489 1.35165 12.4889 1.44449 12.673 1.61201L22.043 10.13C22.3812 10.4375 22.1637 11 21.7067 11H20V20ZM11.6464 16.6465C11.8417 16.8417 12.1583 16.8417 12.3536 16.6465L15.359 13.641C15.5679 13.4321 15.7337 13.184 15.8467 12.9111C15.9598 12.6381 16.018 12.3455 16.018 12.05C16.018 11.7545 15.9598 11.462 15.8467 11.189C15.7337 10.916 15.5679 10.6679 15.359 10.459C15.1501 10.2501 14.902 10.0843 14.629 9.97127C14.3561 9.8582 14.0635 9.8 13.768 9.8C13.4725 9.8 13.1799 9.8582 12.907 9.97127C12.634 10.0843 12.3859 10.2501 12.177 10.459L12 10.636L11.823 10.459C11.6141 10.2501 11.366 10.0843 11.093 9.97127C10.8201 9.8582 10.5275 9.8 10.232 9.8C9.93652 9.8 9.64394 9.8582 9.37096 9.97127C9.09797 10.0843 8.84993 10.2501 8.641 10.459C8.43207 10.6679 8.26633 10.916 8.15326 11.189C8.04018 11.462 7.98199 11.7545 7.98199 12.05C7.98199 12.3455 8.04018 12.6381 8.15326 12.9111C8.26633 13.184 8.43207 13.4321 8.641 13.641L11.6464 16.6465Z" fill="black"/>
</svg>
