<svg width="24" height="24" viewBox="0 0 24 24" fill="none" xmlns="http://www.w3.org/2000/svg">
<path d="M20 20C20 20.2652 19.8946 20.5196 19.7071 20.7071C19.5196 20.8947 19.2652 21 19 21H5C4.73478 21 4.48043 20.8947 4.29289 20.7071C4.10536 20.5196 4 20.2652 4 20V11H2.29332C1.8363 11 1.61882 10.4375 1.95699 10.13L11.327 1.61201C11.5111 1.44449 11.7511 1.35165 12 1.35165C12.2489 1.35165 12.4889 1.44449 12.673 1.61201L22.043 10.13C22.3812 10.4375 22.1637 11 21.7067 11H20V20ZM7.99665 11.0713C7.44999 10.9927 7 11.4477 7 12V12C7 12.5523 7.45208 12.99 7.99335 13.0997C8.3076 13.1634 8.61575 13.2573 8.91342 13.3806C9.52004 13.6319 10.0712 14.0002 10.5355 14.4645C10.9998 14.9288 11.3681 15.48 11.6194 16.0866C11.7427 16.3843 11.8366 16.6924 11.9003 17.0067C12.0101 17.5479 12.4477 18 13 18V18C13.5523 18 14.0073 17.55 13.9287 17.0034C13.7147 15.5153 13.0253 14.1258 11.9497 13.0503C10.8742 11.9747 9.4847 11.2853 7.99665 11.0713ZM7.49771 15.0416C7.2254 14.9958 7 15.2239 7 15.5V17.5C7 17.7762 7.22386 18 7.5 18H9.5C9.77614 18 10.0043 17.7746 9.95844 17.5023C9.85564 16.8913 9.56522 16.3226 9.12132 15.8787C8.67742 15.4348 8.10873 15.1444 7.49771 15.0416Z" fill="black"/>
</svg>
