<svg width="24" height="24" viewBox="0 0 24 24" fill="none" xmlns="http://www.w3.org/2000/svg">
<path d="M20 20C20 20.2652 19.8946 20.5196 19.7071 20.7071C19.5196 20.8947 19.2652 21 19 21H5C4.73478 21 4.48043 20.8947 4.29289 20.7071C4.10536 20.5196 4 20.2652 4 20V11H2.29332C1.8363 11 1.61882 10.4375 1.95699 10.13L11.327 1.61201C11.5111 1.44449 11.7511 1.35165 12 1.35165C12.2489 1.35165 12.4889 1.44449 12.673 1.61201L22.043 10.13C22.3812 10.4375 22.1637 11 21.7067 11H20V20ZM8.5 13C7.94772 13 7.48891 13.4531 7.61064 13.9918C7.79662 14.8148 8.21195 15.5759 8.81802 16.182C9.66193 17.0259 10.8065 17.5 12 17.5C13.1935 17.5 14.3381 17.0259 15.182 16.182C15.788 15.5759 16.2034 14.8148 16.3894 13.9918C16.5111 13.4531 16.0523 13 15.5 13V13C14.9477 13 14.5177 13.4649 14.3026 13.9736C14.1784 14.2675 13.9978 14.5377 13.7678 14.7678C13.2989 15.2366 12.663 15.5 12 15.5C11.337 15.5 10.7011 15.2366 10.2322 14.7678C10.0022 14.5377 9.82163 14.2675 9.69736 13.9736C9.48228 13.4649 9.05228 13 8.5 13V13Z" fill="black"/>
</svg>
