<svg width="24" height="24" viewBox="0 0 24 24" fill="none" xmlns="http://www.w3.org/2000/svg">
<path d="M6 19H18V9.15701L12 3.70301L6 9.15701V19ZM19 21H5C4.73478 21 4.48043 20.8947 4.29289 20.7071C4.10536 20.5196 4 20.2652 4 20V11H2.29332C1.8363 11 1.61882 10.4375 1.95699 10.13L11.327 1.61201C11.5111 1.44449 11.7511 1.35165 12 1.35165C12.2489 1.35165 12.4889 1.44449 12.673 1.61201L22.043 10.13C22.3812 10.4375 22.1637 11 21.7067 11H20V20C20 20.2652 19.8946 20.5196 19.7071 20.7071C19.5196 20.8947 19.2652 21 19 21ZM7.61064 13.9918C7.48891 13.4531 7.94772 13 8.5 13V13C9.05228 13 9.48228 13.4649 9.69736 13.9736C9.82163 14.2675 10.0022 14.5377 10.2322 14.7678C10.7011 15.2366 11.337 15.5 12 15.5C12.663 15.5 13.2989 15.2366 13.7678 14.7678C13.9978 14.5377 14.1784 14.2675 14.3026 13.9736C14.5177 13.4649 14.9477 13 15.5 13V13C16.0523 13 16.5111 13.4531 16.3894 13.9918C16.2034 14.8148 15.788 15.5759 15.182 16.182C14.3381 17.0259 13.1935 17.5 12 17.5C10.8065 17.5 9.66193 17.0259 8.81802 16.182C8.21195 15.5759 7.79662 14.8148 7.61064 13.9918Z" fill="black"/>
</svg>
