<svg width="24" height="24" viewBox="0 0 24 24" fill="none" xmlns="http://www.w3.org/2000/svg">
<path d="M19 20C19 20.2652 18.8946 20.5196 18.7071 20.7071C18.5196 20.8947 18.2652 21 18 21H4C3.73478 21 3.48043 20.8947 3.29289 20.7071C3.10536 20.5196 3 20.2652 3 20V11H1.29332C0.836304 11 0.61882 10.4375 0.956989 10.13L10.327 1.61201C10.5111 1.44449 10.7511 1.35165 11 1.35165C11.2489 1.35165 11.4889 1.44449 11.673 1.61201L21.043 10.13C21.3812 10.4375 21.1637 11 20.7067 11H19V20ZM11 15C11.663 15 12.2989 14.7366 12.7678 14.2678C13.2366 13.7989 13.5 13.1631 13.5 12.5C13.5 11.837 13.2366 11.2011 12.7678 10.7322C12.2989 10.2634 11.663 10 11 10C10.337 10 9.70107 10.2634 9.23223 10.7322C8.76339 11.2011 8.5 11.837 8.5 12.5C8.5 13.1631 8.76339 13.7989 9.23223 14.2678C9.70107 14.7366 10.337 15 11 15Z" fill="black"/>
</svg>
