<svg width="24" height="24" viewBox="0 0 24 24" fill="none" xmlns="http://www.w3.org/2000/svg">
<path d="M6 19H18V9.15701L12 3.70301L6 9.15701V19ZM19 21H5C4.73478 21 4.48043 20.8947 4.29289 20.7071C4.10536 20.5196 4 20.2652 4 20V11H2.29332C1.8363 11 1.61882 10.4375 1.95699 10.13L11.327 1.61201C11.5111 1.44449 11.7511 1.35165 12 1.35165C12.2489 1.35165 12.4889 1.44449 12.673 1.61201L22.043 10.13C22.3812 10.4375 22.1637 11 21.7067 11H20V20C20 20.2652 19.8946 20.5196 19.7071 20.7071C19.5196 20.8947 19.2652 21 19 21ZM8 11C8 10.4477 8.44999 9.99267 8.99665 10.0713C10.4847 10.2853 11.8742 10.9747 12.9497 12.0503C14.0253 13.1258 14.7147 14.5153 14.9287 16.0034C15.0073 16.55 14.5523 17 14 17V17C13.4477 17 13.0101 16.5479 12.9003 16.0066C12.7065 15.0507 12.2355 14.1645 11.5355 13.4645C10.8355 12.7645 9.94935 12.2935 8.99338 12.0997C8.45211 11.9899 8 11.5523 8 11V11ZM8 14.5C8 14.2239 8.2254 13.9958 8.49771 14.0416C9.10873 14.1444 9.67742 14.4348 10.1213 14.8787C10.5652 15.3226 10.8556 15.8913 10.9584 16.5023C11.0043 16.7746 10.7761 17 10.5 17H8.5C8.22386 17 8 16.7762 8 16.5V14.5Z" fill="black"/>
</svg>
