<svg width="24" height="24" viewBox="0 0 24 24" fill="none" xmlns="http://www.w3.org/2000/svg">
<path d="M21 20H22C22.5523 20 23 20.4477 23 21V21C23 21.5523 22.5523 22 22 22H2C1.44772 22 1 21.5523 1 21V21C1 20.4477 1.44772 20 2 20H3V3C3 2.73478 3.10536 2.48043 3.29289 2.29289C3.48043 2.10536 3.73478 2 4 2H20C20.2652 2 20.5196 2.10536 20.7071 2.29289C20.8946 2.48043 21 2.73478 21 3V20ZM11 8H9.5C9.22386 8 9 8.22386 9 8.5V9.5C9 9.77614 9.22386 10 9.5 10H11V11.5C11 11.7761 11.2239 12 11.5 12H12.5C12.7761 12 13 11.7761 13 11.5V10H14.5C14.7761 10 15 9.77614 15 9.5V8.5C15 8.22386 14.7761 8 14.5 8H13V6.5C13 6.22386 12.7761 6 12.5 6H11.5C11.2239 6 11 6.22386 11 6.5V8ZM14 20H16V14H8V20H10V16.5C10 16.2239 10.2239 16 10.5 16H13.5C13.7761 16 14 16.2239 14 16.5V20Z" fill="black"/>
</svg>
