<svg width="24" height="24" viewBox="0 0 24 24" fill="none" xmlns="http://www.w3.org/2000/svg">
<path d="M8 20V14.5C8 14.2239 8.22386 14 8.5 14H15.5C15.7761 14 16 14.2239 16 14.5V20H19V4H5V20H8ZM10 20H14V16H10V20ZM21 20H22C22.5523 20 23 20.4477 23 21V21C23 21.5523 22.5523 22 22 22H2C1.44772 22 1 21.5523 1 21V21C1 20.4477 1.44772 20 2 20H3V3C3 2.73478 3.10536 2.48043 3.29289 2.29289C3.48043 2.10536 3.73478 2 4 2H20C20.2652 2 20.5196 2.10536 20.7071 2.29289C20.8946 2.48043 21 2.73478 21 3V20ZM11 8V6.5C11 6.22386 11.2239 6 11.5 6H12.5C12.7761 6 13 6.22386 13 6.5V8H14.5C14.7761 8 15 8.22386 15 8.5V9.5C15 9.77614 14.7761 10 14.5 10H13V11.5C13 11.7761 12.7761 12 12.5 12H11.5C11.2239 12 11 11.7761 11 11.5V10H9.5C9.22386 10 9 9.77614 9 9.5V8.5C9 8.22386 9.22386 8 9.5 8H11Z" fill="black"/>
</svg>
