<svg width="24" height="24" viewBox="0 0 24 24" fill="none" xmlns="http://www.w3.org/2000/svg">
<path d="M17 19H19V11H13V19H15V13.5C15 13.2239 15.2239 13 15.5 13H16.5C16.7761 13 17 13.2239 17 13.5V19ZM3 19V4C3 3.73478 3.10536 3.48043 3.29289 3.29289C3.48043 3.10536 3.73478 3 4 3H18C18.2652 3 18.5196 3.10536 18.7071 3.29289C18.8946 3.48043 19 3.73478 19 4V9H20C20.5523 9 21 9.44772 21 10V19V19C21.5523 19 22 19.4477 22 20V20C22 20.5523 21.5523 21 21 21H3C2.44772 21 2 20.5523 2 20V20C2 19.4477 2.44772 19 3 19V19ZM7.5 11C7.22386 11 7 11.2239 7 11.5V12.5C7 12.7761 7.22386 13 7.5 13H8.5C8.77614 13 9 12.7761 9 12.5V11.5C9 11.2239 8.77614 11 8.5 11H7.5ZM7.5 15C7.22386 15 7 15.2239 7 15.5V16.5C7 16.7761 7.22386 17 7.5 17H8.5C8.77614 17 9 16.7761 9 16.5V15.5C9 15.2239 8.77614 15 8.5 15H7.5ZM7.5 7C7.22386 7 7 7.22386 7 7.5V8.5C7 8.77614 7.22386 9 7.5 9H8.5C8.77614 9 9 8.77614 9 8.5V7.5C9 7.22386 8.77614 7 8.5 7H7.5Z" fill="black"/>
</svg>
