<svg width="24" height="24" viewBox="0 0 24 24" fill="none" xmlns="http://www.w3.org/2000/svg">
<path d="M21 13V20C21 20.2652 20.8946 20.5196 20.7071 20.7071C20.5196 20.8946 20.2652 21 20 21H4C3.73478 21 3.48043 20.8946 3.29289 20.7071C3.10536 20.5196 3 20.2652 3 20V13H2.5C2.22386 13 2 12.7761 2 12.5V11L2.83922 6.80388C2.93271 6.33646 3.34312 6 3.8198 6H20.1802C20.6569 6 21.0673 6.33646 21.1608 6.80388L22 11V12.5C22 12.7761 21.7761 13 21.5 13H21ZM5 13V19H19V13H5ZM6 14.5C6 14.2239 6.22386 14 6.5 14H13.5C13.7761 14 14 14.2239 14 14.5V16.5C14 16.7761 13.7761 17 13.5 17H6.5C6.22386 17 6 16.7761 6 16.5V14.5ZM3 3.54C3 3.24177 3.24177 3 3.54 3H20.46C20.7582 3 21 3.24177 21 3.54V4.46C21 4.75823 20.7582 5 20.46 5H3.54C3.24177 5 3 4.75823 3 4.46V3.54Z" fill="black"/>
</svg>
