<svg width="24" height="24" viewBox="0 0 24 24" fill="none" xmlns="http://www.w3.org/2000/svg">
<path d="M21 13V20C21 20.2652 20.8946 20.5196 20.7071 20.7071C20.5196 20.8946 20.2652 21 20 21H4C3.73478 21 3.48043 20.8946 3.29289 20.7071C3.10536 20.5196 3 20.2652 3 20V13H2.5C2.22386 13 2 12.7761 2 12.5V11L2.91961 6.40194C2.96635 6.16823 3.17156 6 3.4099 6H20.5901C20.8284 6 21.0336 6.16823 21.0804 6.40194L22 11V12.5C22 12.7761 21.7761 13 21.5 13H21ZM5 13V19H19V13H5ZM4.04 11H19.96L19.36 8H4.64L4.04 11ZM6 14.5C6 14.2239 6.22386 14 6.5 14H13.5C13.7761 14 14 14.2239 14 14.5V16.5C14 16.7761 13.7761 17 13.5 17H6.5C6.22386 17 6 16.7761 6 16.5V14.5ZM3 3.5C3 3.22386 3.22386 3 3.5 3H20.5C20.7761 3 21 3.22386 21 3.5V4.5C21 4.77614 20.7761 5 20.5 5H3.5C3.22386 5 3 4.77614 3 4.5V3.5Z" fill="black"/>
</svg>
