<svg width="24" height="24" viewBox="0 0 24 24" fill="none" xmlns="http://www.w3.org/2000/svg">
<path d="M21 3C21.2652 3 21.5196 3.10536 21.7071 3.29289C21.8946 3.48043 22 3.73478 22 4V20C22 20.2652 21.8946 20.5196 21.7071 20.7071C21.5196 20.8946 21.2652 21 21 21H3C2.73478 21 2.48043 20.8946 2.29289 20.7071C2.10536 20.5196 2 20.2652 2 20V4C2 3.73478 2.10536 3.48043 2.29289 3.29289C2.48043 3.10536 2.73478 3 3 3H21ZM9.6504 8.62871C9.49857 8.249 9.13083 8 8.72189 8H8.07603C7.66713 8 7.29942 8.24895 7.14756 8.62861L4.74754 14.6287C4.4848 15.2855 4.96854 16 5.67599 16V16C6.08488 16 6.45258 15.7511 6.60444 15.3714L6.753 15H10.043L10.1916 15.3714C10.3434 15.751 10.7115 16 11.1204 16V16C11.8278 16 12.3123 15.2856 12.0497 14.6287L9.6504 8.62871ZM19 9C19 8.44772 18.5523 8 18 8V8C17.4477 8 17 8.44772 17 9V10H16C15.2191 9.99925 14.4687 10.303 13.9082 10.8468C13.3477 11.3905 13.0213 12.1314 12.9984 12.912C12.9755 13.6925 13.2578 14.4513 13.7855 15.027C14.3131 15.6027 15.0444 15.9499 15.824 15.995L16 16H18C18.5523 16 19 15.5523 19 15V9ZM17 12V14H16L15.883 13.993C15.64 13.9641 15.4159 13.847 15.2534 13.664C15.0909 13.481 15.0011 13.2448 15.0011 13C15.0011 12.7552 15.0909 12.519 15.2534 12.336C15.4159 12.153 15.64 12.0359 15.883 12.007L16 12H17ZM8.399 10.885L9.244 13H7.552L8.399 10.885Z" fill="black"/>
</svg>
