<svg width="24" height="24" viewBox="0 0 24 24" fill="none" xmlns="http://www.w3.org/2000/svg">
<path d="M21 3C21.2652 3 21.5196 3.10536 21.7071 3.29289C21.8946 3.48043 22 3.73478 22 4V20C22 20.2652 21.8946 20.5196 21.7071 20.7071C21.5196 20.8946 21.2652 21 21 21H3C2.73478 21 2.48043 20.8946 2.29289 20.7071C2.10536 20.5196 2 20.2652 2 20V4C2 3.73478 2.10536 3.48043 2.29289 3.29289C2.48043 3.10536 2.73478 3 3 3H21ZM20 5H4V19H20V5ZM8.72189 8C9.13083 8 9.49857 8.249 9.65041 8.62871L12.0497 14.6287C12.3123 15.2856 11.8278 16 11.1204 16V16C10.7115 16 10.3434 15.751 10.1916 15.3714L10.043 15H6.753L6.60444 15.3714C6.45258 15.7511 6.08488 16 5.67599 16V16C4.96854 16 4.4848 15.2855 4.74754 14.6287L7.14756 8.62861C7.29942 8.24895 7.66713 8 8.07603 8H8.72189ZM17.9998 8C18.552 8 19 8.44772 19 9V15C19 15.5523 18.5523 16 18 16H16C15.2044 16 14.4413 15.6839 13.8787 15.1213C13.3161 14.5587 13 13.7956 13 13C13 12.2044 13.3161 11.4413 13.8787 10.8787C14.4413 10.3161 15.2044 10 16 10H16.999L16.9995 8.9995C16.9998 8.44741 17.4477 8 17.9998 8V8ZM17 12H16C15.7451 12.0003 15.5 12.0979 15.3146 12.2728C15.1293 12.4478 15.0178 12.687 15.0028 12.9414C14.9879 13.1958 15.0707 13.4464 15.2343 13.6418C15.3979 13.8373 15.6299 13.9629 15.883 13.993L16 14H17V12ZM8.399 10.885L7.552 13H9.244L8.399 10.885Z" fill="black"/>
</svg>
