<svg width="24" height="24" viewBox="0 0 24 24" fill="none" xmlns="http://www.w3.org/2000/svg">
<path d="M3 11C3 10.4477 3.44772 10 4 10H20C20.5523 10 21 10.4477 21 11V20.004C21 20.554 20.555 21 20.007 21H3.993C3.86238 20.9999 3.73307 20.974 3.61246 20.9239C3.49184 20.8737 3.3823 20.8003 3.29007 20.7078C3.19785 20.6153 3.12477 20.5055 3.07499 20.3848C3.02522 20.264 2.99974 20.1346 3 20.004V11ZM9.5 12C9.22386 12 9 12.2239 9 12.5V13.5C9 13.7761 9.22386 14 9.5 14H14.5C14.7761 14 15 13.7761 15 13.5V12.5C15 12.2239 14.7761 12 14.5 12H9.5ZM2 4C2 3.448 2.455 3 2.992 3H21.008C21.556 3 22 3.444 22 4V7C22 7.55228 21.5523 8 21 8H3C2.44772 8 2 7.55228 2 7V4Z" fill="black"/>
</svg>
