<svg width="24" height="24" viewBox="0 0 24 24" fill="none" xmlns="http://www.w3.org/2000/svg">
<path d="M3 13.5C3 13.2239 3.22386 13 3.5 13H20.5C20.7761 13 21 13.2239 21 13.5V21.002C21 21.553 20.555 22 20.007 22H3.993C3.86225 21.9997 3.73284 21.9737 3.61215 21.9234C3.49147 21.8731 3.38188 21.7995 3.28966 21.7068C3.19744 21.6141 3.12439 21.5042 3.07469 21.3832C3.02499 21.2623 2.99961 21.1328 3 21.002V13.5ZM3 2.998C3 2.447 3.445 2 3.993 2H20.007C20.555 2 21 2.446 21 2.998V10.5C21 10.7761 20.7761 11 20.5 11H3.5C3.22386 11 3 10.7761 3 10.5V2.998ZM9.5 5C9.22386 5 9 5.22386 9 5.5V6.5C9 6.77614 9.22386 7 9.5 7H14.5C14.7761 7 15 6.77614 15 6.5V5.5C15 5.22386 14.7761 5 14.5 5H9.5ZM9.5 16C9.22386 16 9 16.2239 9 16.5V17.5C9 17.7761 9.22386 18 9.5 18H14.5C14.7761 18 15 17.7761 15 17.5V16.5C15 16.2239 14.7761 16 14.5 16H9.5Z" fill="black"/>
</svg>
