<svg width="24" height="24" viewBox="0 0 24 24" fill="none" xmlns="http://www.w3.org/2000/svg">
<path d="M3 2.992C3 2.444 3.445 2 3.993 2H20.007C20.2696 2.00183 20.521 2.1069 20.7068 2.29251C20.8926 2.47813 20.9979 2.72938 21 2.992V21.008C20.9997 21.2712 20.895 21.5235 20.7088 21.7095C20.5226 21.8955 20.2702 22 20.007 22H3.993C3.73038 21.9982 3.47902 21.8931 3.29322 21.7075C3.10742 21.5219 3.00209 21.2706 3 21.008V2.992ZM19 11V4H5V11H19ZM19 13H5V20H19V13ZM9 6.5C9 6.22386 9.22386 6 9.5 6H14.5C14.7761 6 15 6.22386 15 6.5V7.5C15 7.77614 14.7761 8 14.5 8H9.5C9.22386 8 9 7.77614 9 7.5V6.5ZM9 15.5C9 15.2239 9.22386 15 9.5 15H14.5C14.7761 15 15 15.2239 15 15.5V16.5C15 16.7761 14.7761 17 14.5 17H9.5C9.22386 17 9 16.7761 9 16.5V15.5Z" fill="black"/>
</svg>
