<svg width="24" height="24" viewBox="0 0 24 24" fill="none" xmlns="http://www.w3.org/2000/svg">
<path d="M11.5 3C11.7761 3 12 3.22386 12 3.5V4.5C12 4.77614 11.7761 5 11.5 5H3.5C3.22386 5 3 4.77614 3 4.5V3.5C3 3.22386 3.22386 3 3.5 3H11.5ZM15.5 19C15.7761 19 16 19.2239 16 19.5V20.5C16 20.7761 15.7761 21 15.5 21H3.5C3.22386 21 3 20.7761 3 20.5V19.5C3 19.2239 3.22386 19 3.5 19H15.5ZM21.5 11C21.7761 11 22 11.2239 22 11.5V12.5C22 12.7761 21.7761 13 21.5 13H3.5C3.22386 13 3 12.7761 3 12.5V11.5C3 11.2239 3.22386 11 3.5 11H21.5Z" fill="black"/>
</svg>
