<svg width="24" height="24" viewBox="0 0 24 24" fill="none" xmlns="http://www.w3.org/2000/svg">
<path d="M3 3H21C21.2652 3 21.5196 3.10536 21.7071 3.29289C21.8946 3.48043 22 3.73478 22 4V20C22 20.2652 21.8946 20.5196 21.7071 20.7071C21.5196 20.8946 21.2652 21 21 21H3C2.73478 21 2.48043 20.8946 2.29289 20.7071C2.10536 20.5196 2 20.2652 2 20V4C2 3.73478 2.10536 3.48043 2.29289 3.29289C2.48043 3.10536 2.73478 3 3 3ZM4 5V19H20V5H4ZM7 13.5C7 13.2239 7.22386 13 7.5 13H8.5C8.77614 13 9 13.2239 9 13.5V16.5C9 16.7761 8.77614 17 8.5 17H7.5C7.22386 17 7 16.7761 7 16.5V13.5ZM11 7.5C11 7.22386 11.2239 7 11.5 7H12.5C12.7761 7 13 7.22386 13 7.5V16.5C13 16.7761 12.7761 17 12.5 17H11.5C11.2239 17 11 16.7761 11 16.5V7.5ZM15 10.5C15 10.2239 15.2239 10 15.5 10H16.5C16.7761 10 17 10.2239 17 10.5V16.5C17 16.7761 16.7761 17 16.5 17H15.5C15.2239 17 15 16.7761 15 16.5V10.5Z" fill="black"/>
</svg>
