<svg width="24" height="24" viewBox="0 0 24 24" fill="none" xmlns="http://www.w3.org/2000/svg">
<path d="M3 3H21C21.2652 3 21.5196 3.10536 21.7071 3.29289C21.8946 3.48043 22 3.73478 22 4V20C22 20.2652 21.8946 20.5196 21.7071 20.7071C21.5196 20.8946 21.2652 21 21 21H3C2.73478 21 2.48043 20.8946 2.29289 20.7071C2.10536 20.5196 2 20.2652 2 20V4C2 3.73478 2.10536 3.48043 2.29289 3.29289C2.48043 3.10536 2.73478 3 3 3ZM7.5 13C7.22386 13 7 13.2239 7 13.5V16.5C7 16.7761 7.22386 17 7.5 17H8.5C8.77614 17 9 16.7761 9 16.5V13.5C9 13.2239 8.77614 13 8.5 13H7.5ZM11.5 7C11.2239 7 11 7.22386 11 7.5V16.5C11 16.7761 11.2239 17 11.5 17H12.5C12.7761 17 13 16.7761 13 16.5V7.5C13 7.22386 12.7761 7 12.5 7H11.5ZM15.5 10C15.2239 10 15 10.2239 15 10.5V16.5C15 16.7761 15.2239 17 15.5 17H16.5C16.7761 17 17 16.7761 17 16.5V10.5C17 10.2239 16.7761 10 16.5 10H15.5Z" fill="black"/>
</svg>
