<svg width="24" height="24" viewBox="0 0 24 24" fill="none" xmlns="http://www.w3.org/2000/svg">
<path d="M2 12.5C2 12.2239 2.22386 12 2.5 12H3.5C3.77614 12 4 12.2239 4 12.5V20.5C4 20.7761 3.77614 21 3.5 21H2.5C2.22386 21 2 20.7761 2 20.5V12.5ZM5 14.5C5 14.2239 5.22386 14 5.5 14H6.5C6.77614 14 7 14.2239 7 14.5V20.5C7 20.7761 6.77614 21 6.5 21H5.5C5.22386 21 5 20.7761 5 20.5V14.5ZM16 8.5C16 8.22386 16.2239 8 16.5 8H17.5C17.7761 8 18 8.22386 18 8.5V20.5C18 20.7761 17.7761 21 17.5 21H16.5C16.2239 21 16 20.7761 16 20.5V8.5ZM19 10.5C19 10.2239 19.2239 10 19.5 10H20.5C20.7761 10 21 10.2239 21 10.5V20.5C21 20.7761 20.7761 21 20.5 21H19.5C19.2239 21 19 20.7761 19 20.5V10.5ZM9 2.5C9 2.22386 9.22386 2 9.5 2H10.5C10.7761 2 11 2.22386 11 2.5V20.5C11 20.7761 10.7761 21 10.5 21H9.5C9.22386 21 9 20.7761 9 20.5V2.5ZM12 4.5C12 4.22386 12.2239 4 12.5 4H13.5C13.7761 4 14 4.22386 14 4.5V20.5C14 20.7761 13.7761 21 13.5 21H12.5C12.2239 21 12 20.7761 12 20.5V4.5Z" fill="black"/>
</svg>
