<svg width="24" height="24" viewBox="0 0 24 24" fill="none" xmlns="http://www.w3.org/2000/svg">
<path d="M3 12.5C3 12.2239 3.22386 12 3.5 12H4.5C4.77614 12 5 12.2239 5 12.5V20.5C5 20.7761 4.77614 21 4.5 21H3.5C3.22386 21 3 20.7761 3 20.5V12.5ZM19 8.5C19 8.22386 19.2239 8 19.5 8H20.5C20.7761 8 21 8.22386 21 8.5V20.5C21 20.7761 20.7761 21 20.5 21H19.5C19.2239 21 19 20.7761 19 20.5V8.5ZM11 2.5C11 2.22386 11.2239 2 11.5 2H12.5C12.7761 2 13 2.22386 13 2.5V20.5C13 20.7761 12.7761 21 12.5 21H11.5C11.2239 21 11 20.7761 11 20.5V2.5Z" fill="black"/>
</svg>
