<svg width="24" height="24" viewBox="0 0 24 24" fill="none" xmlns="http://www.w3.org/2000/svg">
<path d="M4 2H20C20.2652 2 20.5196 2.10536 20.7071 2.29289C20.8946 2.48043 21 2.73478 21 3V22.276C21.0001 22.3594 20.9793 22.4416 20.9395 22.5149C20.8997 22.5882 20.8422 22.6505 20.7722 22.6959C20.7023 22.7413 20.622 22.7685 20.5388 22.775C20.4557 22.7815 20.3722 22.767 20.296 22.733L12 19.03L3.704 22.732C3.6279 22.766 3.54451 22.7805 3.46141 22.774C3.37831 22.7676 3.29813 22.7405 3.22818 22.6952C3.15822 22.6499 3.1007 22.5878 3.06085 22.5146C3.021 22.4414 3.00008 22.3593 3 22.276V3C3 2.73478 3.10536 2.48043 3.29289 2.29289C3.48043 2.10536 3.73478 2 4 2ZM19 19.965V4H5V19.965L12 16.841L19 19.965ZM12 13.5L9.95765 14.5736C9.59085 14.7665 9.16216 14.455 9.23218 14.0466L9.622 11.773L7.96999 10.162C7.67335 9.87272 7.83708 9.36887 8.24709 9.30923L10.531 8.977L11.5518 6.90836C11.7351 6.53675 12.265 6.53668 12.4485 6.90824L13.47 8.977L15.753 9.30919C16.163 9.36885 16.3267 9.87269 16.0301 10.162L14.378 11.773L14.7671 14.0467C14.837 14.4551 14.4083 14.7665 14.0416 14.5736L12 13.5Z" fill="black"/>
</svg>
