<svg width="24" height="24" viewBox="0 0 24 24" fill="none" xmlns="http://www.w3.org/2000/svg">
<path d="M8.5 13C8.77614 13 9 13.2239 9 13.5V16H15V13.5C15 13.2239 15.2239 13 15.5 13H21.5C21.7761 13 22 13.2239 22 13.5V20C22 20.2652 21.8946 20.5196 21.7071 20.7071C21.5196 20.8946 21.2652 21 21 21H3C2.73478 21 2.48043 20.8946 2.29289 20.7071C2.10536 20.5196 2 20.2652 2 20V13.5C2 13.2239 2.22386 13 2.5 13H8.5ZM11 11.5C11 11.2239 11.2239 11 11.5 11H12.5C12.7761 11 13 11.2239 13 11.5V13.5C13 13.7761 12.7761 14 12.5 14H11.5C11.2239 14 11 13.7761 11 13.5V11.5ZM7 5V2C7 1.73478 7.10536 1.48043 7.29289 1.29289C7.48043 1.10536 7.73478 1 8 1H16C16.2652 1 16.5196 1.10536 16.7071 1.29289C16.8946 1.48043 17 1.73478 17 2V5H21C21.2652 5 21.5196 5.10536 21.7071 5.29289C21.8946 5.48043 22 5.73478 22 6V10.5C22 10.7761 21.7761 11 21.5 11H15.5C15.2239 11 15 10.7761 15 10.5V9H9V10.5C9 10.7761 8.77614 11 8.5 11H2.5C2.22386 11 2 10.7761 2 10.5V6C2 5.73478 2.10536 5.48043 2.29289 5.29289C2.48043 5.10536 2.73478 5 3 5H7ZM9 3V5H15V3H9Z" fill="black"/>
</svg>
