<svg width="24" height="24" viewBox="0 0 24 24" fill="none" xmlns="http://www.w3.org/2000/svg">
<path d="M4 2H20C20.2652 2 20.5196 2.10536 20.7071 2.29289C20.8946 2.48043 21 2.73478 21 3V21C21 21.2652 20.8946 21.5196 20.7071 21.7071C20.5196 21.8946 20.2652 22 20 22H4C3.73478 22 3.48043 21.8946 3.29289 21.7071C3.10536 21.5196 3 21.2652 3 21V3C3 2.73478 3.10536 2.48043 3.29289 2.29289C3.48043 2.10536 3.73478 2 4 2ZM5 4V20H19V4H5ZM7 6.5C7 6.22386 7.22386 6 7.5 6H16.5C16.7761 6 17 6.22386 17 6.5V9.5C17 9.77614 16.7761 10 16.5 10H7.5C7.22386 10 7 9.77614 7 9.5V6.5ZM7 12.5C7 12.2239 7.22386 12 7.5 12H8.5C8.77614 12 9 12.2239 9 12.5V13.5C9 13.7761 8.77614 14 8.5 14H7.5C7.22386 14 7 13.7761 7 13.5V12.5ZM7 16.5C7 16.2239 7.22386 16 7.5 16H8.5C8.77614 16 9 16.2239 9 16.5V17.5C9 17.7761 8.77614 18 8.5 18H7.5C7.22386 18 7 17.7761 7 17.5V16.5ZM11 12.5C11 12.2239 11.2239 12 11.5 12H12.5C12.7761 12 13 12.2239 13 12.5V13.5C13 13.7761 12.7761 14 12.5 14H11.5C11.2239 14 11 13.7761 11 13.5V12.5ZM11 16.5C11 16.2239 11.2239 16 11.5 16H12.5C12.7761 16 13 16.2239 13 16.5V17.5C13 17.7761 12.7761 18 12.5 18H11.5C11.2239 18 11 17.7761 11 17.5V16.5ZM15 12.5C15 12.2239 15.2239 12 15.5 12H16.5C16.7761 12 17 12.2239 17 12.5V17.5C17 17.7761 16.7761 18 16.5 18H15.5C15.2239 18 15 17.7761 15 17.5V12.5Z" fill="black"/>
</svg>
