<svg width="24" height="24" viewBox="0 0 24 24" fill="none" xmlns="http://www.w3.org/2000/svg">
<path d="M17 3H21C21.2652 3 21.5196 3.10536 21.7071 3.29289C21.8946 3.48043 22 3.73478 22 4V20C22 20.2652 21.8946 20.5196 21.7071 20.7071C21.5196 20.8946 21.2652 21 21 21H3C2.73478 21 2.48043 20.8946 2.29289 20.7071C2.10536 20.5196 2 20.2652 2 20V4C2 3.73478 2.10536 3.48043 2.29289 3.29289C2.48043 3.10536 2.73478 3 3 3H7V1.5C7 1.22386 7.22386 1 7.5 1H8.5C8.77614 1 9 1.22386 9 1.5V3H15V1.5C15 1.22386 15.2239 1 15.5 1H16.5C16.7761 1 17 1.22386 17 1.5V3ZM4 9V19H20V9H4ZM6 11.5C6 11.2239 6.22386 11 6.5 11H7.5C7.77614 11 8 11.2239 8 11.5V12.5C8 12.7761 7.77614 13 7.5 13H6.5C6.22386 13 6 12.7761 6 12.5V11.5ZM6 15.5C6 15.2239 6.22386 15 6.5 15H7.5C7.77614 15 8 15.2239 8 15.5V16.5C8 16.7761 7.77614 17 7.5 17H6.5C6.22386 17 6 16.7761 6 16.5V15.5ZM10 11.5C10 11.2239 10.2239 11 10.5 11H17.5C17.7761 11 18 11.2239 18 11.5V12.5C18 12.7761 17.7761 13 17.5 13H10.5C10.2239 13 10 12.7761 10 12.5V11.5ZM10 15.5C10 15.2239 10.2239 15 10.5 15H14.5C14.7761 15 15 15.2239 15 15.5V16.5C15 16.7761 14.7761 17 14.5 17H10.5C10.2239 17 10 16.7761 10 16.5V15.5Z" fill="black"/>
</svg>
