<svg width="24" height="24" viewBox="0 0 24 24" fill="none" xmlns="http://www.w3.org/2000/svg">
<path d="M17 3H21C21.2652 3 21.5196 3.10536 21.7071 3.29289C21.8946 3.48043 22 3.73478 22 4V20C22 20.2652 21.8946 20.5196 21.7071 20.7071C21.5196 20.8946 21.2652 21 21 21H3C2.73478 21 2.48043 20.8946 2.29289 20.7071C2.10536 20.5196 2 20.2652 2 20V4C2 3.73478 2.10536 3.48043 2.29289 3.29289C2.48043 3.10536 2.73478 3 3 3H7V1.5C7 1.22386 7.22386 1 7.5 1H8.5C8.77614 1 9 1.22386 9 1.5V3H15V1.5C15 1.22386 15.2239 1 15.5 1H16.5C16.7761 1 17 1.22386 17 1.5V3ZM20 11H4V19H20V11ZM15 5H9V6.5C9 6.77614 8.77614 7 8.5 7H7.5C7.22386 7 7 6.77614 7 6.5V5H4V9H20V5H17V6.5C17 6.77614 16.7761 7 16.5 7H15.5C15.2239 7 15 6.77614 15 6.5V5ZM6 13.5C6 13.2239 6.22386 13 6.5 13H7.5C7.77614 13 8 13.2239 8 13.5V14.5C8 14.7761 7.77614 15 7.5 15H6.5C6.22386 15 6 14.7761 6 14.5V13.5ZM11 13.5C11 13.2239 11.2239 13 11.5 13H12.5C12.7761 13 13 13.2239 13 13.5V14.5C13 14.7761 12.7761 15 12.5 15H11.5C11.2239 15 11 14.7761 11 14.5V13.5ZM16 13.5C16 13.2239 16.2239 13 16.5 13H17.5C17.7761 13 18 13.2239 18 13.5V14.5C18 14.7761 17.7761 15 17.5 15H16.5C16.2239 15 16 14.7761 16 14.5V13.5Z" fill="black"/>
</svg>
