<svg width="24" height="24" viewBox="0 0 24 24" fill="none" xmlns="http://www.w3.org/2000/svg">
<path d="M8.5 1C8.77614 1 9 1.22386 9 1.5V3H15V1.5C15 1.22386 15.2239 1 15.5 1H16.5C16.7761 1 17 1.22386 17 1.5V3H21C21.2652 3 21.5196 3.10536 21.7071 3.29289C21.8946 3.48043 22 3.73478 22 4V20C22 20.2652 21.8946 20.5196 21.7071 20.7071C21.5196 20.8946 21.2652 21 21 21H3C2.73478 21 2.48043 20.8946 2.29289 20.7071C2.10536 20.5196 2 20.2652 2 20V4C2 3.73478 2.10536 3.48043 2.29289 3.29289C2.48043 3.10536 2.73478 3 3 3H7V1.5C7 1.22386 7.22386 1 7.5 1H8.5ZM20 8H4V19H20V8ZM14.3291 10.8431C14.7195 10.4526 15.3526 10.4526 15.7431 10.843V10.843C16.1335 11.2335 16.1335 11.8665 15.7431 12.257L12.0657 15.9343C11.7533 16.2467 11.2467 16.2467 10.9343 15.9343L8.67161 13.6716C8.28089 13.2809 8.28142 12.647 8.67242 12.2566V12.2566C9.06309 11.8665 9.69631 11.8665 10.0866 12.2569L11.501 13.672L14.3291 10.8431Z" fill="black"/>
</svg>
