<svg width="24" height="24" viewBox="0 0 24 24" fill="none" xmlns="http://www.w3.org/2000/svg">
<path d="M17 3H21C21.2652 3 21.5196 3.10536 21.7071 3.29289C21.8946 3.48043 22 3.73478 22 4V20C22 20.2652 21.8946 20.5196 21.7071 20.7071C21.5196 20.8946 21.2652 21 21 21H3C2.73478 21 2.48043 20.8946 2.29289 20.7071C2.10536 20.5196 2 20.2652 2 20V4C2 3.73478 2.10536 3.48043 2.29289 3.29289C2.48043 3.10536 2.73478 3 3 3H7V1.5C7 1.22386 7.22386 1 7.5 1H8.5C8.77614 1 9 1.22386 9 1.5V3H15V1.5C15 1.22386 15.2239 1 15.5 1H16.5C16.7761 1 17 1.22386 17 1.5V3ZM4 9V19H20V9H4ZM6 11.5C6 11.2239 6.22386 11 6.5 11H7.5C7.77614 11 8 11.2239 8 11.5V12.5C8 12.7761 7.77614 13 7.5 13H6.5C6.22386 13 6 12.7761 6 12.5V11.5ZM11 11.5C11 11.2239 11.2239 11 11.5 11H12.5C12.7761 11 13 11.2239 13 11.5V12.5C13 12.7761 12.7761 13 12.5 13H11.5C11.2239 13 11 12.7761 11 12.5V11.5ZM16 11.5C16 11.2239 16.2239 11 16.5 11H17.5C17.7761 11 18 11.2239 18 11.5V12.5C18 12.7761 17.7761 13 17.5 13H16.5C16.2239 13 16 12.7761 16 12.5V11.5Z" fill="black"/>
</svg>
