<svg width="24" height="24" viewBox="0 0 24 24" fill="none" xmlns="http://www.w3.org/2000/svg">
<path d="M8.5 1C8.77614 1 9 1.22386 9 1.5V3H15V1.5C15 1.22386 15.2239 1 15.5 1H16.5C16.7761 1 17 1.22386 17 1.5V3H21C21.2652 3 21.5196 3.10536 21.7071 3.29289C21.8946 3.48043 22 3.73478 22 4V20C22 20.2652 21.8946 20.5196 21.7071 20.7071C21.5196 20.8946 21.2652 21 21 21H3C2.73478 21 2.48043 20.8946 2.29289 20.7071C2.10536 20.5196 2 20.2652 2 20V4C2 3.73478 2.10536 3.48043 2.29289 3.29289C2.48043 3.10536 2.73478 3 3 3H7V1.5C7 1.22386 7.22386 1 7.5 1H8.5ZM20 10H4V19H20V10ZM14.3291 11.8431C14.7195 11.4526 15.3526 11.4526 15.7431 11.843V11.843C16.1335 12.2335 16.1335 12.8665 15.7431 13.257L12.0657 16.9343C11.7533 17.2467 11.2467 17.2467 10.9343 16.9343L8.67161 14.6716C8.28089 14.2809 8.28142 13.647 8.67242 13.2566V13.2566C9.06309 12.8665 9.69631 12.8665 10.0866 13.2569L11.501 14.672L14.3291 11.8431ZM7 5H4V8H20V5H17V5.5C17 5.77614 16.7761 6 16.5 6H15.5C15.2239 6 15 5.77614 15 5.5V5H9V5.5C9 5.77614 8.77614 6 8.5 6H7.5C7.22386 6 7 5.77614 7 5.5V5Z" fill="black"/>
</svg>
