<svg width="24" height="24" viewBox="0 0 24 24" fill="none" xmlns="http://www.w3.org/2000/svg">
<path d="M2.80769 2.80681C3.19826 2.41653 3.83143 2.41644 4.22185 2.80687L21.8999 20.4849C22.2904 20.8754 22.2901 21.5089 21.8996 21.8994V21.8994C21.509 22.29 20.8754 22.2902 20.4849 21.8996L19.178 20.592C18.4837 20.8624 17.7451 21.0008 17 21H7C5.58323 21.0009 4.21184 20.5004 3.12868 19.5872C2.04552 18.6739 1.32047 17.4069 1.0819 16.0103C0.843337 14.6138 1.10665 13.1779 1.82523 11.9569C2.5438 10.7358 3.67127 9.80849 5.008 9.33901C4.9652 8.47016 5.08492 7.60095 5.361 6.77601L2.80714 4.22137C2.41662 3.83073 2.41697 3.19726 2.80769 2.80681V2.80681ZM7 9.00001C7 9.08101 7.002 9.16301 7.006 9.24301L7.076 10.731L5.672 11.225C4.7825 11.5396 4.03275 12.1583 3.55509 12.9719C3.07744 13.7856 2.90261 14.7418 3.06146 15.6718C3.22031 16.6018 3.70262 17.4458 4.42326 18.0548C5.1439 18.6637 6.05652 18.9985 7 19H17C17.186 19 17.369 18.987 17.548 18.963L7.03 8.44501C7.01 8.62701 7 8.81201 7 9.00001ZM12 2.00001C12.9478 1.99998 13.8858 2.19244 14.757 2.56571C15.6282 2.93898 16.4145 3.48529 17.0683 4.17153C17.7221 4.85776 18.2297 5.66962 18.5604 6.55788C18.8911 7.44614 19.0379 8.39231 18.992 9.33901C19.8225 9.63156 20.5785 10.1032 21.2063 10.7206C21.8342 11.3379 22.3185 12.0859 22.625 12.9113C22.9316 13.7368 23.0527 14.6195 22.98 15.497C22.9252 16.157 22.7618 16.8018 22.4978 17.4058C22.3658 17.7075 21.9749 17.7599 21.742 17.527L20.9451 16.7301C20.8032 16.5882 20.7627 16.376 20.8222 16.1843C21.0214 15.5436 21.0567 14.8612 20.9222 14.2002C20.7657 13.4307 20.3862 12.7244 19.8309 12.1692C19.2757 11.6141 18.5693 11.2347 17.7998 11.0783C17.1388 10.944 16.4565 10.9794 15.8158 11.1787C15.6241 11.2383 15.4118 11.1978 15.2699 11.0557L14.4719 10.2573C14.2391 10.0243 14.2916 9.63323 14.5934 9.50133C15.3303 9.17927 16.1438 9.00001 17 9.00001C17 8.08447 16.7486 7.18651 16.2732 6.40405C15.7979 5.62158 15.1168 4.98466 14.3043 4.56272C13.4918 4.14078 12.579 3.95003 11.6655 4.01127C10.8922 4.06311 10.1436 4.29385 9.47765 4.68293C9.26781 4.80552 8.99857 4.78459 8.82673 4.61275L8.09339 3.8794C7.88112 3.66713 7.90186 3.31561 8.1525 3.1504C9.29087 2.40006 10.6283 1.9977 12 2.00001Z" fill="black"/>
</svg>
