<svg width="24" height="24" viewBox="0 0 24 24" fill="none" xmlns="http://www.w3.org/2000/svg">
<path d="M2.80769 2.80681C3.19826 2.41653 3.83143 2.41644 4.22185 2.80687L21.8999 20.4849C22.2904 20.8754 22.2901 21.5089 21.8996 21.8994V21.8994C21.509 22.29 20.8754 22.2902 20.4849 21.8996L19.178 20.592C18.4837 20.8624 17.7451 21.0008 17 21H7C5.58323 21.0009 4.21184 20.5004 3.12868 19.5872C2.04552 18.6739 1.32047 17.4069 1.0819 16.0103C0.843337 14.6138 1.10665 13.1779 1.82523 11.9569C2.5438 10.7358 3.67127 9.80849 5.008 9.33901C4.9652 8.47016 5.08492 7.60095 5.361 6.77601L2.80714 4.22137C2.41662 3.83073 2.41697 3.19726 2.80769 2.80681V2.80681ZM17 9.00001C18.0519 9.00065 19.0852 9.2777 19.9963 9.8034C20.9075 10.3291 21.6645 11.085 22.1915 11.9954C22.7186 12.9057 22.9971 13.9386 22.9993 14.9905C23.001 15.8239 22.8293 16.646 22.4976 17.4054C22.3658 17.7073 21.9747 17.7598 21.7418 17.5269L14.4717 10.2576C14.2389 10.0249 14.291 9.63406 14.5925 9.50199C15.329 9.17933 16.1429 9.00001 17 9.00001ZM12 2.00001C13.5423 2.00014 15.0414 2.5094 16.2647 3.44876C17.2686 4.21971 18.0406 5.24498 18.5053 6.41155C18.6443 6.76058 18.3244 7.10006 17.9513 7.05585C17.1511 6.96103 16.3396 6.98706 15.5442 7.13445C14.612 7.3072 13.7188 7.64353 12.9056 8.12684C12.7008 8.24855 12.4378 8.22382 12.2694 8.05538L8.09339 3.8794C7.88112 3.66713 7.90186 3.31561 8.1525 3.1504C9.29087 2.40006 10.6283 1.9977 12 2.00001Z" fill="black"/>
</svg>
