<svg width="24" height="24" viewBox="0 0 24 24" fill="none" xmlns="http://www.w3.org/2000/svg">
<path d="M12 2C17.52 2 22 6.48 22 12C22 17.52 17.52 22 12 22C6.48 22 2 17.52 2 12C2 6.48 6.48 2 12 2ZM12 7C9.24 7 7 9.24 7 12C7 14.76 9.24 17 12 17C13.4611 17 14.7759 16.3729 15.6904 15.3728C16.0632 14.965 15.9035 14.3415 15.4296 14.0575V14.0575C14.9564 13.7738 14.3501 13.9455 13.9272 14.2998C13.7831 14.4205 13.6275 14.5278 13.4621 14.6201C13.0041 14.8755 12.4871 15.0064 11.9627 14.9998C11.4384 14.9931 10.9249 14.8491 10.4735 14.5821C10.0222 14.3152 9.64868 13.9345 9.39029 13.4782C9.13189 13.0219 8.99763 12.5058 9.00089 11.9814C9.00414 11.457 9.1448 10.9426 9.40885 10.4895C9.67289 10.0364 10.0511 9.66045 10.5057 9.3991C10.9604 9.13775 11.4756 9.00014 12 9C12.7335 9 13.4058 9.26303 13.927 9.69991C14.3504 10.0548 14.958 10.2262 15.4315 9.94169V9.94169C15.9046 9.65738 16.0643 9.03456 15.6919 8.62706C15.3381 8.23974 14.924 7.90898 14.4638 7.64851C13.7123 7.22318 12.8635 6.99976 12 7Z" fill="black"/>
</svg>
