<svg width="24" height="24" viewBox="0 0 24 24" fill="none" xmlns="http://www.w3.org/2000/svg">
<path d="M12 22C6.48 22 2 17.52 2 12C2 6.48 6.48 2 12 2C17.52 2 22 6.48 22 12C22 17.52 17.52 22 12 22ZM12 17C14.76 17 17 14.76 17 12C17 9.24 14.76 7 12 7C10.539 7 9.22434 7.62697 8.3099 8.62695C7.9369 9.03483 8.09667 9.65858 8.57073 9.94274V9.94274C9.04384 10.2263 9.65008 10.055 10.0726 9.70047C10.5938 9.2631 11.2657 9 12 9C13.658 9 15 10.342 15 12C15 13.658 13.658 15 12 15C11.2662 15 10.5937 14.7368 10.0723 14.2996C9.64939 13.9449 9.04232 13.7736 8.56918 14.0579V14.0579C8.0959 14.3423 7.93685 14.9655 8.30959 15.3729C9.22405 16.3722 10.5389 17 12 17Z" fill="black"/>
</svg>
