<svg width="24" height="24" viewBox="0 0 24 24" fill="none" xmlns="http://www.w3.org/2000/svg">
<path d="M12 2C17.52 2 22 6.48 22 12C22 17.52 17.52 22 12 22C6.48 22 2 17.52 2 12C2 6.48 6.48 2 12 2ZM12 4C7.58 4 4 7.58 4 12C4 16.42 7.58 20 12 20C16.42 20 20 16.42 20 12C20 7.58 16.42 4 12 4ZM12 7C13.4615 7 14.7766 7.62742 15.6911 8.62803C16.0635 9.0355 15.9041 9.65845 15.4309 9.94258V9.94258C14.9577 10.2266 14.351 10.0549 13.928 9.7005C13.7841 9.57993 13.6286 9.47267 13.4634 9.38045C13.0055 9.12484 12.4885 8.99374 11.9641 9.00023C11.4397 9.00672 10.9262 9.15056 10.4747 9.41742C10.0232 9.68428 9.6496 10.0648 9.39107 10.5211C9.13254 10.9774 8.99815 11.4935 9.00128 12.0179C9.00442 12.5424 9.14498 13.0568 9.40895 13.51C9.67292 13.9632 10.0511 14.3392 10.5057 14.6007C10.9603 14.8621 11.4756 14.9998 12 15C12.5181 15.0003 13.0275 14.8664 13.4785 14.6112C13.6376 14.5212 13.7875 14.4171 13.9266 14.3006C14.35 13.9461 14.957 13.7742 15.4306 14.0581V14.0581C15.9041 14.3419 16.0646 14.9648 15.6925 15.3727C15.187 15.9269 14.5603 16.3635 13.8559 16.6453C12.8402 17.0517 11.7192 17.1137 10.6649 16.8217C9.61058 16.5298 8.68114 15.9 8.01914 15.029C7.35713 14.1581 6.99912 13.094 7 12C7 9.24 9.24 7 12 7Z" fill="black"/>
</svg>
