<svg width="24" height="24" viewBox="0 0 24 24" fill="none" xmlns="http://www.w3.org/2000/svg">
<path d="M12 22C6.48 22 2 17.52 2 12C2 6.48 6.48 2 12 2C17.52 2 22 6.48 22 12C22 17.52 17.52 22 12 22ZM12 20C16.42 20 20 16.42 20 12C20 7.58 16.42 4 12 4C7.58 4 4 7.58 4 12C4 16.42 7.58 20 12 20ZM12 17C10.5387 17 9.22379 16.3728 8.30932 15.3724C7.93664 14.9647 8.09609 14.3414 8.56965 14.0571V14.0571C9.0427 13.7731 9.64932 13.9442 10.072 14.2989C10.5934 14.7365 11.2658 15 12 15C13.658 15 15 13.658 15 12C15 10.342 13.658 9 12 9C11.2657 9 10.5938 9.2631 10.0726 9.70047C9.65008 10.055 9.04384 10.2263 8.57073 9.94274V9.94274C8.09667 9.65858 7.9369 9.03483 8.3099 8.62695C9.22434 7.62697 10.539 7 12 7C14.76 7 17 9.24 17 12C17 14.76 14.76 17 12 17Z" fill="black"/>
</svg>
