<svg width="24" height="24" viewBox="0 0 24 24" fill="none" xmlns="http://www.w3.org/2000/svg">
<path d="M12 2C17.523 2 22 6.477 22 12C22 17.523 17.523 22 12 22C6.477 22 2 17.523 2 12C2 6.477 6.477 2 12 2ZM9 8C6.792 8 5 9.792 5 12C5.0005 12.7722 5.22445 13.5278 5.64485 14.1756C6.06524 14.8233 6.66411 15.3356 7.36918 15.6505C8.07425 15.9655 8.85541 16.0697 9.61838 15.9505C10.0762 15.879 10.5156 15.729 10.9183 15.5091C11.3717 15.2616 11.4159 14.6634 11.0928 14.2605V14.2605C10.7306 13.8088 10.0428 13.8019 9.48083 13.9412C9.4576 13.9469 9.43424 13.9523 9.41077 13.9572C9.03071 14.037 8.63563 14.0045 8.27376 13.8635C7.91189 13.7226 7.59889 13.4793 7.37295 13.1635C7.14702 12.8476 7.01794 12.4728 7.00146 12.0848C6.98498 11.6968 7.08182 11.3124 7.28015 10.9785C7.47849 10.6446 7.76974 10.3757 8.11835 10.2046C8.46697 10.0334 8.85786 9.9675 9.24332 10.0148C9.34764 10.0276 9.45034 10.0486 9.55054 10.0773C10.0188 10.2114 10.5612 10.2416 10.9336 9.92766L10.9979 9.87353C11.4452 9.49645 11.4762 8.80443 10.9669 8.51645C10.8265 8.43708 10.6812 8.36614 10.5316 8.30411C10.0461 8.10281 9.52558 7.99946 9 8ZM16 8C13.792 8 12 9.792 12 12C12.0005 12.7722 12.2245 13.5278 12.6448 14.1756C13.0652 14.8233 13.6641 15.3356 14.3692 15.6505C15.0743 15.9655 15.8554 16.0697 16.6184 15.9505C17.0762 15.879 17.5156 15.729 17.9183 15.5091C18.3717 15.2616 18.4159 14.6634 18.0928 14.2605V14.2605C17.7306 13.8088 17.0428 13.8019 16.4808 13.9412C16.4576 13.9469 16.4342 13.9523 16.4108 13.9572C16.0307 14.037 15.6356 14.0045 15.2738 13.8635C14.9119 13.7226 14.5989 13.4793 14.373 13.1635C14.147 12.8476 14.0179 12.4728 14.0015 12.0848C13.985 11.6968 14.0818 11.3124 14.2802 10.9785C14.4785 10.6446 14.7697 10.3757 15.1184 10.2046C15.467 10.0334 15.8579 9.9675 16.2433 10.0148C16.3476 10.0276 16.4503 10.0486 16.5505 10.0773C17.0188 10.2114 17.5612 10.2416 17.9336 9.92766L17.9979 9.87353C18.4452 9.49645 18.4762 8.80443 17.9669 8.51645C17.8265 8.43708 17.6812 8.36614 17.5316 8.30411C17.0461 8.10281 16.5256 7.99946 16 8Z" fill="black"/>
</svg>
