<svg width="24" height="24" viewBox="0 0 24 24" fill="none" xmlns="http://www.w3.org/2000/svg">
<path d="M3.91824 6.10898C4.09261 5.87009 4.43752 5.85338 4.64675 6.06243L7.836 9.24901C7.62324 9.61698 7.5078 10.0331 7.50061 10.4581C7.49342 10.8831 7.5947 11.3029 7.79489 11.6779C7.99508 12.0528 8.28757 12.3705 8.64471 12.601C9.00186 12.8315 9.41187 12.9671 9.836 12.995L10 13H14L14.09 13.008C14.2053 13.0289 14.3096 13.0896 14.3847 13.1795C14.4598 13.2694 14.5009 13.3829 14.5009 13.5C14.5009 13.6172 14.4598 13.7306 14.3847 13.8205C14.3096 13.9104 14.2053 13.9711 14.09 13.992L14 14H9.5C8.94772 14 8.5 14.4477 8.5 15V15C8.5 15.5523 8.94772 16 9.5 16H11V17C11 17.5523 11.4477 18 12 18V18C12.5523 18 13 17.5523 13 17V16H14C14.121 16 14.24 15.991 14.357 15.975L14.53 15.944L17.9378 19.3536C18.1468 19.5627 18.1303 19.9075 17.8916 20.0819C16.1856 21.3286 14.1225 22.0033 12 22C6.477 22 2 17.523 2 12C2 9.79829 2.71199 7.76153 3.91824 6.10898ZM12 2.00001C17.523 2.00001 22 6.47701 22 12C22 14.2017 21.288 16.2384 20.0818 17.891C19.9074 18.1299 19.5625 18.1466 19.3533 17.9375L16.165 14.751C16.3775 14.3831 16.4928 13.967 16.4998 13.5422C16.5069 13.1173 16.4056 12.6977 16.2054 12.3229C16.0053 11.9481 15.7129 11.6305 15.3558 11.4001C14.9988 11.1696 14.589 11.034 14.165 11.006L14 11H10L9.91 10.992C9.79472 10.9711 9.69043 10.9104 9.61532 10.8205C9.54022 10.7306 9.49908 10.6172 9.49908 10.5C9.49908 10.3829 9.54022 10.2694 9.61532 10.1795C9.69043 10.0896 9.79472 10.0289 9.91 10.008L10 10H14.5C15.0523 10 15.5 9.5523 15.5 9.00001V9.00001C15.5 8.44773 15.0523 8.00001 14.5 8.00001H13V7.00001C13 6.44773 12.5523 6.00001 12 6.00001V6.00001C11.4477 6.00001 11 6.44773 11 7.00001V8.00001H10C9.879 8.00001 9.76 8.00901 9.644 8.02501L9.471 8.05601L6.06227 4.64638C5.85325 4.43731 5.86977 4.09254 6.10846 3.91811C7.81447 2.6714 9.87748 1.99668 12 2.00001Z" fill="black"/>
</svg>
