<svg width="24" height="24" viewBox="0 0 24 24" fill="none" xmlns="http://www.w3.org/2000/svg">
<path d="M12 2C17.523 2 22 6.477 22 12C22 17.523 17.523 22 12 22C6.477 22 2 17.523 2 12C2 6.477 6.477 2 12 2ZM12 4C9.87827 4 7.84344 4.84285 6.34315 6.34315C4.84285 7.84344 4 9.87827 4 12C4 14.1217 4.84285 16.1566 6.34315 17.6569C7.84344 19.1571 9.87827 20 12 20C14.1217 20 16.1566 19.1571 17.6569 17.6569C19.1571 16.1566 20 14.1217 20 12C20 9.87827 19.1571 7.84344 17.6569 6.34315C16.1566 4.84285 14.1217 4 12 4ZM15 13C15.5523 13 16 13.4477 16 14V14C16 14.5523 15.5523 15 15 15H9C8.44772 15 8 14.5523 8 14V14C8 13.4477 8.44772 13 9 13H15ZM15 9C15.5523 9 16 9.44772 16 10V10C16 10.5523 15.5523 11 15 11H9C8.44772 11 8 10.5523 8 10V10C8 9.44772 8.44772 9 9 9H15Z" fill="black"/>
</svg>
