<svg width="24" height="24" viewBox="0 0 24 24" fill="none" xmlns="http://www.w3.org/2000/svg">
<path d="M12 2C17.523 2 22 6.477 22 12C22 17.523 17.523 22 12 22C6.477 22 2 17.523 2 12C2 6.477 6.477 2 12 2ZM12 4C9.87827 4 7.84344 4.84285 6.34315 6.34315C4.84285 7.84344 4 9.87827 4 12C4 14.1217 4.84285 16.1566 6.34315 17.6569C7.84344 19.1571 9.87827 20 12 20C14.1217 20 16.1566 19.1571 17.6569 17.6569C19.1571 16.1566 20 14.1217 20 12C20 9.87827 19.1571 7.84344 17.6569 6.34315C16.1566 4.84285 14.1217 4 12 4ZM9 8C9.74638 8 10.4449 8.2044 11.0427 8.56049C11.517 8.84295 11.5127 9.48927 11.1224 9.87958V9.87958C10.7318 10.2702 10.0937 10.2372 9.56368 10.0816C9.50699 10.0649 9.44944 10.0507 9.39117 10.0391C9.00322 9.96176 8.60104 10.0012 8.2355 10.1524C7.86996 10.3036 7.55747 10.5599 7.33757 10.8887C7.11766 11.2175 7.00021 11.6042 7.00007 11.9998C6.99993 12.3954 7.11711 12.7821 7.33678 13.1111C7.55646 13.4401 7.86876 13.6966 8.23419 13.848C8.59963 13.9995 9.00178 14.0392 9.38978 13.9622C9.44864 13.9505 9.50678 13.9362 9.56403 13.9193C10.0933 13.7638 10.7302 13.731 11.1204 14.1209V14.1209C11.5111 14.5113 11.5148 15.158 11.0396 15.4394C10.6521 15.6689 10.2265 15.8325 9.78014 15.9211C9.00449 16.0751 8.2006 15.9958 7.47 15.6932C6.7394 15.3906 6.11485 14.8783 5.67523 14.221C5.23561 13.5637 5.00065 12.7908 5 12C5 9.792 6.792 8 9 8ZM16 8C16.7464 8 17.4449 8.2044 18.0427 8.5605C18.517 8.84295 18.5127 9.48927 18.1224 9.87958V9.87958C17.7318 10.2702 17.0937 10.2372 16.5637 10.0816C16.507 10.0649 16.4494 10.0507 16.3912 10.0391C16.0032 9.96176 15.601 10.0012 15.2355 10.1524C14.87 10.3036 14.5575 10.5599 14.3376 10.8887C14.1177 11.2175 14.0002 11.6042 14.0001 11.9998C13.9999 12.3954 14.1171 12.7821 14.3368 13.1111C14.5565 13.4401 14.8688 13.6966 15.2342 13.848C15.5996 13.9995 16.0018 14.0392 16.3898 13.9622C16.4486 13.9505 16.5068 13.9362 16.564 13.9193C17.0933 13.7638 17.7302 13.731 18.1204 14.1209V14.1209C18.5111 14.5113 18.5148 15.158 18.0396 15.4394C17.6521 15.6689 17.2265 15.8325 16.7801 15.9211C16.0045 16.0751 15.2006 15.9958 14.47 15.6932C13.7394 15.3906 13.1148 14.8783 12.6752 14.221C12.2356 13.5637 12.0006 12.7908 12 12C12 9.792 13.792 8 16 8Z" fill="black"/>
</svg>
