<svg width="24" height="24" viewBox="0 0 24 24" fill="none" xmlns="http://www.w3.org/2000/svg">
<path d="M12 2C17.52 2 22 6.48 22 12C22 17.52 17.52 22 12 22C6.48 22 2 17.52 2 12C2 6.48 6.48 2 12 2ZM12 6C9.895 6 8.094 7.56 7.357 9.77L7.284 10H6.64051C6.38616 10 6.24721 10.2967 6.41005 10.4921L8.11589 12.5391C8.31579 12.7789 8.68421 12.7789 8.88411 12.5391L10.59 10.4921C10.7528 10.2967 10.6138 10 10.3595 10H9.401C9.92 8.805 10.89 8 12 8C13.657 8 15 9.79 15 12C15 14.21 13.657 16 12 16C11.1303 16 10.2847 15.3706 9.71528 14.5358C9.50094 14.2215 9.16127 14 8.7809 14H8.62131C7.95375 14 7.47387 14.6466 7.78849 15.2354C8.67691 16.898 10.2316 18 12 18C14.761 18 17 15.314 17 12C17 8.686 14.761 6 12 6Z" fill="black"/>
</svg>
