<svg width="24" height="24" viewBox="0 0 24 24" fill="none" xmlns="http://www.w3.org/2000/svg">
<path d="M21 7.99999C21.5304 7.99999 22.0391 8.21071 22.4142 8.58578C22.7893 8.96085 23 9.46956 23 9.99999V14C23 14.5304 22.7893 15.0391 22.4142 15.4142C22.0391 15.7893 21.5304 16 21 16H19.938C19.6942 17.9333 18.7533 19.7112 17.2917 21C16.0815 22.0672 14.5833 22.7383 12.9975 22.9376C12.4495 23.0064 12 22.5523 12 22V22C12 21.4477 12.4508 21.0085 12.9954 20.9169C14.2175 20.7113 15.3548 20.1304 16.2426 19.2426C17.3679 18.1174 18 16.5913 18 15V8.99999C18 7.40869 17.3679 5.88257 16.2426 4.75735C15.1174 3.63213 13.5913 2.99999 12 2.99999C10.4087 2.99999 8.88258 3.63213 7.75736 4.75735C6.63214 5.88257 6 7.40869 6 8.99999V15.5C6 15.7761 5.77614 16 5.5 16H3C2.46957 16 1.96086 15.7893 1.58579 15.4142C1.21071 15.0391 1 14.5304 1 14V9.99999C1 9.46956 1.21071 8.96085 1.58579 8.58578C1.96086 8.21071 2.46957 7.99999 3 7.99999H4.062C4.30603 6.06689 5.24708 4.28926 6.70857 3.00067C8.17007 1.71207 10.0516 1.00107 12 1.00107C13.9484 1.00107 15.8299 1.71207 17.2914 3.00067C18.7529 4.28926 19.694 6.06689 19.938 7.99999H21ZM8.63751 16.2609C8.13687 16.0288 7.99695 15.4059 8.28944 14.9379V14.9379C8.58236 14.4692 9.19804 14.3359 9.70881 14.547C10.4323 14.8461 11.2106 15.0013 12 15C12.7894 15.0013 13.5677 14.8461 14.2912 14.547C14.802 14.3359 15.4176 14.4692 15.7106 14.9379V14.9379C16.003 15.4059 15.8631 16.0288 15.3625 16.2609C14.3126 16.7478 13.1653 17.0018 12 17C10.8347 17.0018 9.68741 16.7478 8.63751 16.2609Z" fill="black"/>
</svg>
