<svg width="24" height="24" viewBox="0 0 24 24" fill="none" xmlns="http://www.w3.org/2000/svg">
<path d="M10.4521 2.11961C10.7443 2.07425 11 2.30637 11 2.60201V4.63665C11 4.88534 10.8165 5.09433 10.573 5.14489C7.39156 5.80549 5 8.62443 5 12C5 15.866 8.134 19 12 19C13.4165 19 14.7356 18.5794 15.8372 17.8553C16.0452 17.7186 16.3227 17.7367 16.4986 17.9126L17.9383 19.3522C18.1474 19.5614 18.1308 19.9065 17.8918 20.0809C16.2392 21.2872 14.2016 22 12 22C6.477 22 2 17.523 2 12C2 7.00393 5.66458 2.86297 10.4521 2.11961ZM21.3978 13C21.6935 13 21.9257 13.2555 21.8803 13.5477C21.6306 15.1542 20.9996 16.6342 20.0809 17.8914C19.9064 18.1302 19.5616 18.1467 19.3525 17.9377L17.9128 16.4986C17.7368 16.3227 17.7186 16.0451 17.8553 15.8371C18.3295 15.1156 18.6731 14.3011 18.8543 13.4269C18.9047 13.1833 19.1137 13 19.3624 13H21.3978ZM13.002 2.60209C13.002 2.30642 13.2578 2.07429 13.55 2.1197C17.8327 2.78525 21.2158 6.16909 21.8822 10.4519C21.9276 10.7441 21.6955 11 21.3998 11H19.3636C19.1148 11 18.9058 10.8163 18.8553 10.5727C18.2921 7.85255 16.1493 5.70979 13.4292 5.14578C13.1856 5.09528 13.002 4.88626 13.002 4.6375V2.60209Z" fill="black"/>
</svg>
