<svg width="24" height="24" viewBox="0 0 24 24" fill="none" xmlns="http://www.w3.org/2000/svg">
<path d="M10.4521 2.11961C10.7443 2.07425 11 2.30637 11 2.60201V3.62046C11 3.87268 10.8115 4.08373 10.5634 4.12873C6.83097 4.80546 4 8.07179 4 12C4 16.418 7.582 20 12 20C13.6908 20 15.2578 19.4757 16.5504 18.5808C16.7576 18.4374 17.0397 18.4537 17.2179 18.6319L17.9383 19.3522C18.1475 19.5614 18.1308 19.9065 17.8918 20.0809C16.2392 21.2872 14.2016 22 12 22C6.477 22 2 17.523 2 12C2 7.00393 5.66458 2.86297 10.4521 2.11961ZM21.3978 13C21.6935 13 21.9257 13.2555 21.8803 13.5477C21.6306 15.1542 20.9995 16.6343 20.0808 17.8915C19.9064 18.1302 19.5617 18.1468 19.3525 17.9378L18.6322 17.2179C18.4538 17.0397 18.4375 16.7575 18.581 16.5503C19.2162 15.633 19.6647 14.577 19.8713 13.4365C19.9163 13.1883 20.1273 13 20.3796 13H21.3978ZM13.002 2.60209C13.002 2.30642 13.2578 2.07429 13.55 2.1197C17.8327 2.78525 21.2158 6.16909 21.8822 10.4519C21.9276 10.7441 21.6955 11 21.3998 11H20.3805C20.1283 11 19.9173 10.8115 19.8723 10.5633C19.2801 7.29738 16.7045 4.72175 13.4385 4.12882C13.1904 4.08378 13.002 3.87274 13.002 3.62057V2.60209Z" fill="black"/>
</svg>
