<svg width="24" height="24" viewBox="0 0 24 24" fill="none" xmlns="http://www.w3.org/2000/svg">
<path d="M2.1207 13.5484C2.07478 13.256 2.30703 13 2.603 13H7.05334C7.319 13 7.53752 13.2079 7.55887 13.4727C7.7703 16.0954 8.55719 18.6367 9.86022 20.9165C10.0757 21.2934 9.76566 21.7571 9.34709 21.6418C7.59338 21.1587 5.99706 20.2042 4.73707 18.8725C3.34385 17.4 2.43382 15.5425 2.1207 13.5484ZM2.603 11C2.30703 11 2.07478 10.744 2.1207 10.4516C2.43382 8.45753 3.34385 6.59998 4.73707 5.12751C5.99706 3.79583 7.59338 2.84133 9.34709 2.35818C9.76566 2.24286 10.0757 2.70654 9.86022 3.08349C8.55719 5.3633 7.7703 7.90458 7.55887 10.5273C7.53752 10.7921 7.319 11 7.05334 11H2.603ZM21.8794 10.4516C21.9253 10.744 21.6931 11 21.3971 11H16.9468C16.6811 11 16.4626 10.7921 16.4412 10.5273C16.2298 7.90458 15.4429 5.3633 14.1399 3.08349C13.9244 2.70654 14.2344 2.24286 14.653 2.35818C16.4067 2.84133 18.003 3.79583 19.263 5.12751C20.6562 6.59998 21.5663 8.45753 21.8794 10.4516ZM21.3971 13C21.6931 13 21.9253 13.256 21.8794 13.5484C21.5663 15.5425 20.6562 17.4 19.263 18.8725C18.003 20.2042 16.4067 21.1587 14.653 21.6418C14.2344 21.7571 13.9244 21.2934 14.1399 20.9165C15.4429 18.6367 16.2298 16.0954 16.4412 13.4727C16.4626 13.2079 16.6811 13 16.9468 13H21.3971ZM9.57124 13.5298C9.54411 13.243 9.77335 13 10.0615 13H13.9386C14.2267 13 14.456 13.243 14.4289 13.5298C14.2159 15.7809 13.5256 17.9599 12.4051 19.9217C12.2239 20.239 11.7762 20.239 11.595 19.9217C10.4745 17.9599 9.78415 15.7809 9.57124 13.5298ZM10.0615 11C9.77335 11 9.54411 10.757 9.57124 10.4702C9.78415 8.21907 10.4745 6.04004 11.595 4.07825C11.7762 3.76102 12.2239 3.76102 12.4051 4.07825C13.5256 6.04004 14.2159 8.21907 14.4289 10.4702C14.456 10.757 14.2267 11 13.9386 11H10.0615Z" fill="black"/>
</svg>
