<svg width="24" height="24" viewBox="0 0 24 24" fill="none" xmlns="http://www.w3.org/2000/svg">
<path d="M21 4V18.721C21.0001 18.818 20.972 18.913 20.9191 18.9943C20.8662 19.0756 20.7908 19.1398 20.702 19.179L12.2023 22.9405C12.0735 22.9975 11.9265 22.9975 11.7977 22.9405L3.298 19.18C3.20894 19.1407 3.13329 19.0762 3.08035 18.9945C3.02742 18.9128 2.99949 18.8174 3 18.72V4H2C1.44772 4 1 3.55228 1 3V3C1 2.44772 1.44772 2 2 2H22C22.5523 2 23 2.44772 23 3V3C23 3.55228 22.5523 4 22 4H21ZM8.5 12C8.22386 12 8 12.2239 8 12.5V13.5C8 13.7761 8.22386 14 8.5 14H15.5C15.7761 14 16 13.7761 16 13.5V12.5C16 12.2239 15.7761 12 15.5 12H8.5ZM8.5 8C8.22386 8 8 8.22386 8 8.5V9.5C8 9.77614 8.22386 10 8.5 10H15.5C15.7761 10 16 9.77614 16 9.5V8.5C16 8.22386 15.7761 8 15.5 8H8.5Z" fill="black"/>
</svg>
