<svg width="24" height="24" viewBox="0 0 24 24" fill="none" xmlns="http://www.w3.org/2000/svg">
<path d="M3.7237 3.55314C3.89302 3.21416 4.23939 3 4.61831 3H19.382C19.7607 3 20.107 3.214 20.2764 3.55279L21.8944 6.78885C21.9639 6.92771 22 7.08082 22 7.23607V20C22 20.2652 21.8946 20.5196 21.7071 20.7071C21.5196 20.8946 21.2652 21 21 21H3C2.73478 21 2.48043 20.8946 2.29289 20.7071C2.10536 20.5196 2 20.2652 2 20V7.23986C2 7.08475 2.03608 6.93176 2.10539 6.793L3.7237 3.55314ZM20 9H4V19H20V9ZM19.764 7L18.764 5H5.237L4.237 7H19.764ZM13 14H14.7929C15.2383 14 15.4614 14.5386 15.1464 14.8536L12.3536 17.6464C12.1583 17.8417 11.8417 17.8417 11.6464 17.6464L8.85355 14.8536C8.53857 14.5386 8.76165 14 9.20711 14H11V11C11 10.4477 11.4477 10 12 10V10C12.5523 10 13 10.4477 13 11V14Z" fill="black"/>
</svg>
